<svg xmlns="http://www.w3.org/2000/svg" width="1164" height="62" viewBox="0 0 1164 62"><g transform="translate(0 0)"><g class="nc-icon-wrapper"><defs/><path class="cls-1" d="M.2 2.12l9.34 9.34a.63.63 0 0 0 .92 0l9.34-9.34a.63.63 0 0 0 .2-.46.66.66 0 0 0-.2-.46l-1-1a.66.66 0 0 0-.46-.2.63.63 0 0 0-.46.2L10 8.08 2.12.2a.63.63 0 0 0-.46-.2.66.66 0 0 0-.46.2l-1 1a.66.66 0 0 0-.2.46.63.63 0 0 0 .2.46z" id="Layer_3" data-name="Layer 3" style="" fill="#333"/></g></g><g transform="translate(20 0)"><g class="nc-icon-wrapper"><defs/><path class="cls-1" d="M14.93 4A8.12 8.12 0 0 0 12 1.07 7.91 7.91 0 0 0 8 0a7.91 7.91 0 0 0-4 1.07A8.12 8.12 0 0 0 1.07 4 7.91 7.91 0 0 0 0 8a7.91 7.91 0 0 0 1.07 4A8.12 8.12 0 0 0 4 14.93 7.91 7.91 0 0 0 8 16a7.91 7.91 0 0 0 4-1.07A8.12 8.12 0 0 0 14.93 12 7.91 7.91 0 0 0 16 8a7.91 7.91 0 0 0-1.07-4zm-5.6 9a.31.31 0 0 1-.33.33H7a.31.31 0 0 1-.33-.33v-2a.31.31 0 0 1 .33-.33h2a.31.31 0 0 1 .33.33zm2.54-6.16a2.66 2.66 0 0 1-.29.63 2.16 2.16 0 0 1-.47.5 5.07 5.07 0 0 1-.47.37l-.51.3a1.75 1.75 0 0 0-.57.51 1 1 0 0 0-.23.52.36.36 0 0 1-.09.24A.32.32 0 0 1 9 10H7a.32.32 0 0 1-.24-.09.36.36 0 0 1-.09-.24v-.38A2 2 0 0 1 7.21 8a3.78 3.78 0 0 1 1.21-.9 2.12 2.12 0 0 0 .71-.47 1 1 0 0 0 .2-.63.76.76 0 0 0-.39-.62 1.51 1.51 0 0 0-.89-.27 1.53 1.53 0 0 0-.89.25 5.44 5.44 0 0 0-.9 1 .29.29 0 0 1-.26.07.27.27 0 0 1-.2-.07l-1.37-1a.29.29 0 0 1-.09-.43 4.26 4.26 0 0 1 3.87-2.26 4 4 0 0 1 1.79.42 3.93 3.93 0 0 1 1.42 1.21A2.77 2.77 0 0 1 12 6a2.47 2.47 0 0 1-.13.84z" id="Layer_3" data-name="Layer 3" style="" fill="#fa096d"/></g></g><g transform="translate(36 0)"><g class="nc-icon-wrapper"><g id="Layer_2_1_"><g id="palette-dark"><g id="icon-dark"><path id="Subtraction_3" class="st0" d="M22.5 2.2c7.2 4 9.7 13.1 5.6 20.3S15 32.2 7.8 28.1l-.1-.1c-.3-.2-.6-.3-.8-.5L21.7 1.7c.3.2.6.3.8.5z" style="" fill="#C0C3D2"/><path id="Subtraction_2" class="st1" d="M7.7 27.9C.5 24-2.2 15 1.7 7.8s12.9-9.9 20.2-6c.1.1.3.1.4.2l.3.1c.3.2.6.3.8.5L8.6 28.4c-.4-.1-.6-.3-.9-.5z" style="" fill="#6A6F82"/></g></g></g></g></g><g transform="translate(66 0)"><g transform="scale(0.9948580371115583)"><g class="nc-icon-wrapper"><defs/><g id="Layer_3" data-name="Layer 3"><path class="cls-1" d="M88.73 2.16v58.56c0 .83-.47 1.45-1 1.45H1.77a.82.82 0 0 1-.57-.26 1.77 1.77 0 0 1-.47-1.19V2.16c0-.83.47-1.45 1-1.45h85.96a1 1 0 0 1 .88.67 1.67 1.67 0 0 1 .16.78z" fill="#fff" stroke="#e5e5ed" stroke-miterlimit="10" stroke-width="0.6px"/><path class="cls-2" d="M88.73 2.57v5.79h-88V2.57c0-1 .47-1.91 1-1.91h85.96c.57.05 1.04.88 1.04 1.91z" fill="#fff" stroke="#e5e5ed" stroke-miterlimit="10" stroke-width="0.7px"/><circle class="cls-3" cx="78.13" cy="4.54" r="1.29" style="" fill="#e5e5ed"/><circle class="cls-3" cx="72.18" cy="4.54" r="1.29" style="" fill="#e5e5ed"/><circle class="cls-3" cx="66.23" cy="4.54" r="1.29" style="" fill="#e5e5ed"/><path class="cls-4" d="M9.78 13.54h69.84v40.87H9.78z" style="" fill="#edeef3"/><path class="cls-5" d="M16.72 18.97h56.03v15.52H16.72z" style="" fill="#a6abbe"/></g></g></g></g><g transform="translate(155 0)"><g transform="scale(0.9948580371115583)"><g class="nc-icon-wrapper"><defs/><g id="Layer_2" data-name="Layer 2"><g id="interstitial-standalone"><path class="cls-1" d="M88.73 2.16v58.56c0 .83-.47 1.45-1 1.45H1.77a.82.82 0 0 1-.57-.26 1.77 1.77 0 0 1-.47-1.19V2.16c0-.83.47-1.45 1-1.45h85.96a1 1 0 0 1 .88.67 1.64 1.64 0 0 1 .16.78z" fill="#fee1ed" stroke-width="0.6px" stroke="#fed0e3" stroke-miterlimit="10"/><path class="cls-2" d="M88.73 2.57v5.79h-88V2.57c0-1 .47-1.91 1-1.91h85.96c.57.05 1.04.87 1.04 1.91z" stroke="#fed0e3" stroke-miterlimit="10" fill="#fff" stroke-width="0.7px"/><circle class="cls-3" cx="78.13" cy="4.54" r="1.29" style="" fill="#fed0e3"/><circle class="cls-3" cx="72.18" cy="4.54" r="1.29" style="" fill="#fed0e3"/><circle class="cls-3" cx="66.23" cy="4.54" r="1.29" style="" fill="#fed0e3"/><path class="cls-4" d="M9.47 14.83h70.51v9.57H9.47z" style="" fill="#fa096d"/></g></g></g></g></g><g transform="translate(244 0)"><g transform="scale(0.9948580371115583)"><g class="nc-icon-wrapper"><defs/><g id="Layer_2" data-name="Layer 2"><g id="interstitial-standalone"><path class="cls-1" d="M88.73 2.16v58.56c0 .83-.47 1.45-1 1.45H1.77a.82.82 0 0 1-.57-.26 1.77 1.77 0 0 1-.47-1.19V2.16c0-.83.47-1.45 1-1.45h85.96a1 1 0 0 1 .88.67 1.64 1.64 0 0 1 .16.78z" fill="#edeef3" stroke-width="0.6px" stroke="#e5e5ed" stroke-miterlimit="10"/><path class="cls-2" d="M88.73 2.57v5.79h-88V2.57c0-1 .47-1.91 1-1.91h85.96c.57.05 1.04.87 1.04 1.91z" stroke="#e5e5ed" stroke-miterlimit="10" fill="#fff" stroke-width="0.7px"/><circle class="cls-3" cx="78.13" cy="4.54" r="1.29" style="" fill="#e5e5ed"/><circle class="cls-3" cx="72.18" cy="4.54" r="1.29" style="" fill="#e5e5ed"/><circle class="cls-3" cx="66.23" cy="4.54" r="1.29" style="" fill="#e5e5ed"/><path class="cls-4" d="M9.47 14.83h70.51v9.57H9.47z" style="" fill="#a6abbe"/></g></g></g></g></g><g transform="translate(333 0)"><g transform="scale(0.9948580371115583)"><g class="nc-icon-wrapper"><defs/><g id="Layer_2" data-name="Layer 2"><path class="cls-1" d="M88.73 2.16v58.56c0 .83-.47 1.45-1 1.45H1.77a.82.82 0 0 1-.57-.26 1.77 1.77 0 0 1-.47-1.19V2.16c0-.83.47-1.45 1-1.45h85.96a1 1 0 0 1 .88.67 1.67 1.67 0 0 1 .16.78z" fill="#fff" stroke="#fed0e3" stroke-miterlimit="10" stroke-width="0.6px"/><path class="cls-2" d="M88.73 2.57v5.79h-88V2.57c0-1 .47-1.91 1-1.91h85.96c.57.05 1.04.88 1.04 1.91z" fill="#fff" stroke="#fed0e3" stroke-miterlimit="10" stroke-width="0.7px"/><circle class="cls-3" cx="78.13" cy="4.54" r="1.29" style="" fill="#fed0e3"/><circle class="cls-3" cx="72.18" cy="4.54" r="1.29" style="" fill="#fed0e3"/><circle class="cls-3" cx="66.23" cy="4.54" r="1.29" style="" fill="#fed0e3"/><path class="cls-4" d="M9.78 13.54h69.84v40.87H9.78z" style="" fill="#fee1ed"/><path class="cls-5" d="M16.72 18.97h56.03v15.52H16.72z" style="" fill="#fa096d"/></g></g></g></g><g transform="translate(422 0)"><g transform="scale(0.9948580371115583)"><g class="nc-icon-wrapper"><defs/><g id="Layer_2" data-name="Layer 2"><g id="Layer_2-2" data-name="Layer 2"><g id="headline-dialog-hover"><g id="Group_635" data-name="Group 635"><path id="Path_626" data-name="Path 626" class="cls-1" d="M88.73 2.13v58.55c0 .81-.46 1.46-1 1.46h-86a.82.82 0 0 1-.58-.2 1.73 1.73 0 0 1-.45-1.21V2.13c0-.8.47-1.45 1-1.45h86a1 1 0 0 1 .86.65 1.72 1.72 0 0 1 .17.8z" fill="#fff" stroke="#fed0e3" stroke-miterlimit="10" stroke-width="1.26px"/><path id="Rectangle_713" data-name="Rectangle 713" class="cls-2" d="M9.97 13.25h69.45v15.52H9.97z" style="" fill="#fa096d"/><path id="Path_627" data-name="Path 627" class="cls-3" d="M88.73 2.57v5.76H.74V2.57c0-1 .46-1.89 1-1.89h86c.53 0 .99.84.99 1.89z" fill="#fff" stroke="#fed0e3" stroke-miterlimit="10" stroke-width="1.47px"/><g id="Group_632" data-name="Group 632"><circle id="Ellipse_79" data-name="Ellipse 79" class="cls-4" cx="78.14" cy="4.51" r="1.28" style="" fill="#fed0e3"/><circle id="Ellipse_80" data-name="Ellipse 80" class="cls-4" cx="72.18" cy="4.51" r="1.28" style="" fill="#fed0e3"/><circle id="Ellipse_81" data-name="Ellipse 81" class="cls-4" cx="66.21" cy="4.51" r="1.28" style="" fill="#fed0e3"/></g><path id="Rectangle_714" data-name="Rectangle 714" class="cls-4" d="M12.28 33.17h64.91a2.46 2.46 0 0 1 2.46 2.46 2.47 2.47 0 0 1-2.46 2.47H12.28a2.48 2.48 0 0 1-2.47-2.47 2.47 2.47 0 0 1 2.47-2.46z" style="" fill="#fed0e3"/><path id="Rectangle_715" data-name="Rectangle 715" class="cls-4" d="M12.44 40.65h30a2.48 2.48 0 0 1 2.47 2.47 2.46 2.46 0 0 1-2.46 2.46h-30A2.46 2.46 0 0 1 10 43.12a2.48 2.48 0 0 1 2.44-2.47z" style="" fill="#fed0e3"/></g></g></g></g></g></g></g><g transform="translate(511 0)"><g transform="scale(0.9948580371115583)"><g class="nc-icon-wrapper"><defs/><g id="Layer_2" data-name="Layer 2"><g id="Layer_2-2" data-name="Layer 2"><g id="headline-dialog-hover"><g id="Group_635" data-name="Group 635"><path id="Path_626" data-name="Path 626" class="cls-1" d="M88.73 1.45V60c0 .81-.46 1.46-1 1.46h-86a.93.93 0 0 1-.58-.2 1.73 1.73 0 0 1-.45-1.21V1.45C.73.65 1.2 0 1.73 0h86a1 1 0 0 1 .86.65 1.7 1.7 0 0 1 .14.8z" fill="#fff" stroke="#e5e5ed" stroke-miterlimit="10" stroke-width="1.26px"/><path id="Rectangle_713" data-name="Rectangle 713" class="cls-2" d="M9.97 12.57h69.45v15.52H9.97z" style="" fill="#a6abbe"/><path id="Path_627" data-name="Path 627" class="cls-3" d="M88.73 1.89v5.76H.74V1.89c0-1 .46-1.89 1-1.89h86c.53 0 .99.84.99 1.89z" fill="#fff" stroke="#e5e5ed" stroke-miterlimit="10" stroke-width="1.47px"/><g id="Group_632" data-name="Group 632"><circle id="Ellipse_79" data-name="Ellipse 79" class="cls-4" cx="78.14" cy="3.83" r="1.28" style="" fill="#e5e5ed"/><circle id="Ellipse_80" data-name="Ellipse 80" class="cls-4" cx="72.18" cy="3.83" r="1.28" style="" fill="#e5e5ed"/><circle id="Ellipse_81" data-name="Ellipse 81" class="cls-4" cx="66.21" cy="3.83" r="1.28" style="" fill="#e5e5ed"/></g><path id="Rectangle_714" data-name="Rectangle 714" class="cls-4" d="M12.28 32.49h64.91A2.46 2.46 0 0 1 79.65 35a2.47 2.47 0 0 1-2.46 2.47H12.28A2.49 2.49 0 0 1 9.81 35a2.47 2.47 0 0 1 2.47-2.51z" style="" fill="#e5e5ed"/><path id="Rectangle_715" data-name="Rectangle 715" class="cls-4" d="M12.44 40h30a2.48 2.48 0 0 1 2.47 2.47 2.46 2.46 0 0 1-2.46 2.46h-30A2.46 2.46 0 0 1 10 42.44 2.48 2.48 0 0 1 12.44 40z" style="" fill="#e5e5ed"/></g></g></g></g></g></g></g><g transform="translate(600 0)"><g transform="scale(0.9948580371115583)"><g class="nc-icon-wrapper"><defs/><g id="Layer_2" data-name="Layer 2"><g id="gdpr-ddirective"><g id="icon-comp-2"><g id="Group_634" data-name="Group 634"><g id="Group_1169" data-name="Group 1169"><g id="Path_628" data-name="Path 628"><path class="cls-1" d="M87.71 61.53H1.77a.2.2 0 0 1-.14-.06 1.09 1.09 0 0 1-.28-.75V2.15c0-.52.26-.83.41-.83h85.91a.36.36 0 0 1 .3.24 1.12 1.12 0 0 1 .11.54v58.59c.03.53-.23.84-.37.84z" style="" fill="#fff"/><path class="cls-2" d="M2 1.93a.58.58 0 0 0 0 .21v58.59a.47.47 0 0 0 0 .17h85.47a.58.58 0 0 0 0-.21V2.15a.69.69 0 0 0 0-.2H2M1.76.69H87.7a1 1 0 0 1 .86.65 1.72 1.72 0 0 1 .17.8v58.55c0 .8-.46 1.45-1 1.45H1.76a.88.88 0 0 1-.58-.25 1.73 1.73 0 0 1-.45-1.2V2.15C.74 1.34 1.2.69 1.76.69z" style="" fill="#fed0e3"/></g><path id="Path_629" data-name="Path 629" class="cls-2" d="M88.73 2.58v5.76h-88V2.58c0-1 .46-1.89 1-1.89h85.98c.56 0 1.02.85 1.02 1.89z" style="" fill="#fed0e3"/></g><g id="Group_634-2" data-name="Group 634-2"><circle id="Ellipse_82" data-name="Ellipse 82" class="cls-1" cx="78.14" cy="4.51" r="1.28" style="" fill="#fff"/><circle id="Ellipse_83" data-name="Ellipse 83" class="cls-1" cx="72.18" cy="4.51" r="1.28" style="" fill="#fff"/><circle id="Ellipse_84" data-name="Ellipse 84" class="cls-1" cx="66.22" cy="4.51" r="1.28" style="" fill="#fff"/></g></g><g id="Group_1170" data-name="Group 1170"><path id="Rectangle_711" data-name="Rectangle 711" class="cls-3" d="M27.2 16.58h35.01v34.23H27.2z" style="" fill="#fee1ed"/><path id="Rectangle_871" data-name="Rectangle 871" class="cls-4" d="M35.54 41.91h18.39a.29.29 0 0 1 .29.29v4.7a.29.29 0 0 1-.29.29H35.54a.29.29 0 0 1-.29-.29v-4.7a.29.29 0 0 1 .29-.29z" style="" fill="#fa096d"/></g></g></g></g></g></g></g><g transform="translate(689 0)"><g transform="scale(0.9948580371115583)"><g class="nc-icon-wrapper"><defs/><g id="Layer_2" data-name="Layer 2"><g id="gdpr-ddirective"><g id="icon-comp-2"><g id="Group_634" data-name="Group 634"><g id="Group_1169" data-name="Group 1169"><g id="Path_628" data-name="Path 628"><path class="cls-1" d="M87.71 61.53H1.77a.2.2 0 0 1-.14-.06 1.09 1.09 0 0 1-.28-.75V2.15c0-.52.26-.83.41-.83h85.91a.36.36 0 0 1 .3.24 1.12 1.12 0 0 1 .11.54v58.59c.03.53-.23.84-.37.84z" style="" fill="#fff"/><path class="cls-2" d="M2 1.93a.58.58 0 0 0 0 .21v58.59a.47.47 0 0 0 0 .17h85.47a.58.58 0 0 0 0-.21V2.15a.69.69 0 0 0 0-.2H2M1.76.69H87.7a1 1 0 0 1 .86.65 1.72 1.72 0 0 1 .17.8v58.55c0 .8-.46 1.45-1 1.45H1.76a.88.88 0 0 1-.58-.25 1.73 1.73 0 0 1-.45-1.2V2.15C.74 1.34 1.2.69 1.76.69z" style="" fill="#e5e5ed"/></g><path id="Path_629" data-name="Path 629" class="cls-2" d="M88.73 2.58v5.76h-88V2.58c0-1 .46-1.89 1-1.89h85.98c.56 0 1.02.85 1.02 1.89z" style="" fill="#e5e5ed"/></g><g id="Group_634-2" data-name="Group 634-2"><circle id="Ellipse_82" data-name="Ellipse 82" class="cls-1" cx="78.14" cy="4.51" r="1.28" style="" fill="#fff"/><circle id="Ellipse_83" data-name="Ellipse 83" class="cls-1" cx="72.18" cy="4.51" r="1.28" style="" fill="#fff"/><circle id="Ellipse_84" data-name="Ellipse 84" class="cls-1" cx="66.22" cy="4.51" r="1.28" style="" fill="#fff"/></g></g><g id="Group_1170" data-name="Group 1170"><path id="Rectangle_711" data-name="Rectangle 711" class="cls-3" d="M27.2 16.58h35.01v34.23H27.2z" style="" fill="#edeef3"/><path id="Rectangle_871" data-name="Rectangle 871" class="cls-4" d="M35.54 41.91h18.39a.29.29 0 0 1 .29.29v4.7a.29.29 0 0 1-.29.29H35.54a.29.29 0 0 1-.29-.29v-4.7a.29.29 0 0 1 .29-.29z" style="" fill="#a6abbe"/></g></g></g></g></g></g></g><g transform="translate(778 0)"><g transform="scale(0.9948580371115583)"><g class="nc-icon-wrapper"><defs/><g id="Layer_2" data-name="Layer 2"><g id="eprivacy-directive"><g id="icon-comp-1"><g id="Group_634" data-name="Group 634"><g id="Group_1168" data-name="Group 1168"><g id="Path_628" data-name="Path 628"><path class="cls-1" d="M87.68 61.39h-86a.91.91 0 0 1-.25-.74V2.11c0-.5.25-.87.37-.87h85.87a.27.27 0 0 1 .25.25A.76.76 0 0 1 88 2v58.53c.05.62-.2.86-.32.86z" style="" fill="#fff"/><path class="cls-2" d="M2.1 2v58.9h85.33V1.86H2.1M1.85.75h85.82a1 1 0 0 1 .87.62 1.62 1.62 0 0 1 .12.74v58.54c0 .74-.5 1.49-1 1.49H1.85c-.25 0-.37-.12-.62-.25a2.18 2.18 0 0 1-.5-1.24V2.11c.13-.74.5-1.36 1.12-1.36z" style="" fill="#fed0e3"/></g><path id="Path_629" data-name="Path 629" class="cls-2" d="M88.73 2.55v5.71H.8V2.55c0-1 .5-1.86 1-1.86h85.81c.62-.01 1.12.86 1.12 1.86z" style="" fill="#fed0e3"/></g><g id="Group_634-2" data-name="Group 634-2"><circle id="Ellipse_82" data-name="Ellipse 82" class="cls-1" cx="78.08" cy="4.47" r="1.24" style="" fill="#fff"/><circle id="Ellipse_83" data-name="Ellipse 83" class="cls-1" cx="72.12" cy="4.47" r="1.24" style="" fill="#fff"/><circle id="Ellipse_84" data-name="Ellipse 84" class="cls-1" cx="66.17" cy="4.47" r="1.24" style="" fill="#fff"/></g></g><path id="Rectangle_870" data-name="Rectangle 870" class="cls-3" d="M2.1 8.68h85.33v11.91H2.1z" style="" fill="#fa096d"/></g></g></g></g></g></g><g transform="translate(867 0)"><g transform="scale(0.9948580371115583)"><g class="nc-icon-wrapper"><defs/><g id="Layer_2" data-name="Layer 2"><g id="eprivacy-directive"><g id="icon-comp-1"><g id="Group_634" data-name="Group 634"><g id="Group_1168" data-name="Group 1168"><g id="Path_628" data-name="Path 628"><path class="cls-1" d="M87.68 61.39h-86a.91.91 0 0 1-.25-.74V2.11c0-.5.25-.87.37-.87h85.87a.27.27 0 0 1 .25.25A.76.76 0 0 1 88 2v58.53c.05.62-.2.86-.32.86z" style="" fill="#fff"/><path class="cls-2" d="M2.1 2v58.9h85.33V1.86H2.1M1.85.75h85.82a1 1 0 0 1 .87.62 1.62 1.62 0 0 1 .12.74v58.54c0 .74-.5 1.49-1 1.49H1.85c-.25 0-.37-.12-.62-.25a2.18 2.18 0 0 1-.5-1.24V2.11c.13-.74.5-1.36 1.12-1.36z" style="" fill="#e5e5ed"/></g><path id="Path_629" data-name="Path 629" class="cls-2" d="M88.73 2.55v5.71H.8V2.55c0-1 .5-1.86 1-1.86h85.81c.62-.01 1.12.86 1.12 1.86z" style="" fill="#e5e5ed"/></g><g id="Group_634-2" data-name="Group 634-2"><circle id="Ellipse_82" data-name="Ellipse 82" class="cls-1" cx="78.08" cy="4.47" r="1.24" style="" fill="#fff"/><circle id="Ellipse_83" data-name="Ellipse 83" class="cls-1" cx="72.12" cy="4.47" r="1.24" style="" fill="#fff"/><circle id="Ellipse_84" data-name="Ellipse 84" class="cls-1" cx="66.17" cy="4.47" r="1.24" style="" fill="#fff"/></g></g><path id="Rectangle_870" data-name="Rectangle 870" class="cls-3" d="M2.1 8.68h85.33v11.91H2.1z" style="" fill="#a6abbe"/></g></g></g></g></g></g><g transform="translate(956 0)"><g transform="scale(0.9948580371115583)"><g class="nc-icon-wrapper"><defs/><g id="Layer_2" data-name="Layer 2"><g id="Layer_2-2" data-name="Layer 2"><g id="simple-dialog-hover"><g id="Group_634" data-name="Group 634"><path id="Path_628" data-name="Path 628" class="cls-1" d="M88.73 2.13v58.55c0 .81-.46 1.46-1 1.46h-86a.82.82 0 0 1-.58-.2 1.73 1.73 0 0 1-.45-1.21V2.13c0-.8.46-1.45 1-1.45h86a1 1 0 0 1 .86.65 1.72 1.72 0 0 1 .17.8z" fill="#fff" stroke="#fed0e3" stroke-miterlimit="10" stroke-width="1.26px"/><path id="Path_629" data-name="Path 629" class="cls-2" d="M88.73 2.57v5.76H.74V2.57c0-1 .46-1.89 1-1.89h86c.53 0 .99.84.99 1.89z" fill="#fff" stroke="#fed0e3" stroke-miterlimit="10" stroke-width="1.47px"/><g id="Group_634-2" data-name="Group 634-2"><circle id="Ellipse_82" data-name="Ellipse 82" class="cls-3" cx="78.14" cy="4.51" r="1.28" style="" fill="#fed0e3"/><circle id="Ellipse_83" data-name="Ellipse 83" class="cls-3" cx="72.18" cy="4.51" r="1.28" style="" fill="#fed0e3"/><circle id="Ellipse_84" data-name="Ellipse 84" class="cls-3" cx="66.21" cy="4.51" r="1.28" style="" fill="#fed0e3"/></g><path id="Rectangle_716" data-name="Rectangle 716" class="cls-3" d="M12.28 13.51h64.91a2.46 2.46 0 0 1 2.46 2.43 2.45 2.45 0 0 1-2.45 2.47H12.28a2.47 2.47 0 0 1-2.47-2.47 2.47 2.47 0 0 1 2.47-2.43z" style="" fill="#fed0e3"/><path id="Rectangle_717" data-name="Rectangle 717" class="cls-3" d="M12.44 21h30a2.46 2.46 0 0 1 2.47 2.45 2.46 2.46 0 0 1-2.46 2.48h-30A2.46 2.46 0 0 1 10 23.46 2.46 2.46 0 0 1 12.44 21z" style="" fill="#fed0e3"/><path id="Rectangle_718" data-name="Rectangle 718" class="cls-4" d="M9.97 30.32h69.45v15.52H9.97z" style="" fill="#fa096d"/></g></g></g></g></g></g></g><g transform="translate(1045 0)"><g transform="scale(0.9948580371115583)"><g class="nc-icon-wrapper"><defs/><g id="Layer_2" data-name="Layer 2"><g id="Layer_2-2" data-name="Layer 2"><g id="simple-dialog"><g id="Group_634" data-name="Group 634"><path id="Path_628" data-name="Path 628" class="cls-1" d="M88.73 2.13v58.55c0 .81-.46 1.46-1 1.46h-86a.82.82 0 0 1-.58-.2 1.73 1.73 0 0 1-.45-1.21V2.13c0-.8.46-1.45 1-1.45h86a1 1 0 0 1 .86.65 1.72 1.72 0 0 1 .17.8z" fill="#fff" stroke="#e5e5ed" stroke-miterlimit="10" stroke-width="1.26px"/><path id="Path_629" data-name="Path 629" class="cls-2" d="M88.73 2.57v5.76H.74V2.57c0-1 .46-1.89 1-1.89h86c.53 0 .99.84.99 1.89z" fill="#fff" stroke="#e5e5ed" stroke-miterlimit="10" stroke-width="1.47px"/><g id="Group_634-2" data-name="Group 634-2"><circle id="Ellipse_82" data-name="Ellipse 82" class="cls-3" cx="78.14" cy="4.51" r="1.28" style="" fill="#e5e5ed"/><circle id="Ellipse_83" data-name="Ellipse 83" class="cls-3" cx="72.18" cy="4.51" r="1.28" style="" fill="#e5e5ed"/><circle id="Ellipse_84" data-name="Ellipse 84" class="cls-3" cx="66.21" cy="4.51" r="1.28" style="" fill="#e5e5ed"/></g><path id="Rectangle_716" data-name="Rectangle 716" class="cls-3" d="M12.28 13.51h64.91a2.46 2.46 0 0 1 2.46 2.43 2.45 2.45 0 0 1-2.45 2.47H12.28a2.47 2.47 0 0 1-2.47-2.47 2.47 2.47 0 0 1 2.47-2.43z" style="" fill="#e5e5ed"/><path id="Rectangle_717" data-name="Rectangle 717" class="cls-3" d="M12.44 21h30a2.46 2.46 0 0 1 2.47 2.45 2.46 2.46 0 0 1-2.46 2.48h-30A2.46 2.46 0 0 1 10 23.46 2.46 2.46 0 0 1 12.44 21z" style="" fill="#e5e5ed"/><path id="Rectangle_718" data-name="Rectangle 718" class="cls-4" d="M9.97 30.32h69.45v15.52H9.97z" style="" fill="#a6abbe"/></g></g></g></g></g></g></g><g transform="translate(1134 0)"><g transform="scale(0.9996667777407531)"><g class="nc-icon-wrapper"><defs/><g id="Layer_2" data-name="Layer 2"><g id="palette-light"><g id="icon-light"><g id="Subtraction_3" data-name="Subtraction 3"><path class="cls-1" d="M22.17 2.6A14.32 14.32 0 1 1 7.84 27.4l-.27-.16L21.89 2.45z" style="" fill="#edeef3"/><path class="cls-2" d="M22.14 3.38L8.51 27A13.64 13.64 0 0 0 22.14 3.38M22.51 2a15 15 0 1 1-15 26c-.29-.16-.57-.34-.85-.52l15-25.93c.27.14.57.3.85.45z" style="" fill="#e5e5ed"/></g><g id="Subtraction_2" data-name="Subtraction 2"><path class="cls-3" d="M7.84 27.4A14.32 14.32 0 1 1 22.17 2.6l.27.16L8.13 27.55a2 2 0 0 1-.29-.15z" style="" fill="#fff"/><path class="cls-2" d="M7.88 26.62L21.51 3A13.63 13.63 0 0 0 7.88 26.62M7.5 28a15 15 0 1 1 15-26c.29.16.57.34.86.53l-15 25.92c-.28-.14-.57-.29-.86-.45z" style="" fill="#e5e5ed"/></g></g></g></g></g></g></g></svg>