<svg xmlns="http://www.w3.org/2000/svg" width="1252" height="64" viewBox="0 0 1252 64"><g transform="translate(0 0)"><g class="nc-icon-wrapper"><defs/><g id="Layer_16" data-name="Layer 16"><path class="cls-1" d="M0 0h31v31H0z" fill="#333" opacity="0"/><circle class="cls-2" cx="15.5" cy="15.5" r="14" fill="#333" opacity="0.5"/><path class="cls-3" d="M15.5 2.5a13 13 0 1 1-13 13 13 13 0 0 1 13-13m0-2a15 15 0 1 0 15 15 15 15 0 0 0-15-15z" style="" fill="#fa096d"/></g></g></g><g transform="translate(31 0)"><g class="nc-icon-wrapper"><defs/><g id="Layer_17" data-name="Layer 17"><path class="cls-1" d="M0 0h31v31H0z" fill="#333" opacity="0"/><path class="cls-2" d="M15.5 2.5a13 13 0 1 1-13 13 13 13 0 0 1 13-13m0-2a15 15 0 1 0 15 15 15 15 0 0 0-15-15z" style="" fill="#fa096d"/></g></g></g><g transform="translate(62 0)"><g class="nc-icon-wrapper"><defs/><g id="Layer_6" data-name="Layer 6"><path class="cls-1" d="M0 0h91v64H0z" fill="#333" opacity="0"/><path class="cls-2" d="M81.68 61H9.32c-2.75 0-4.82-1.33-4.82-3.1V37h2v20.9c0 .32 1 1.1 2.82 1.1h72.36c1.83 0 2.82-.78 2.82-1.1V37h2v20.9c0 1.77-2.07 3.1-4.82 3.1z" style="" fill="#333"/><path class="cls-3" d="M85.5 14h-80V5.61A1.61 1.61 0 0 1 7.11 4h76.78a1.61 1.61 0 0 1 1.61 1.61z" fill="#333" opacity="0.15"/><path class="cls-2" d="M86.5 15h-82V5.61A2.61 2.61 0 0 1 7.11 3h76.78a2.61 2.61 0 0 1 2.61 2.61zm-80-2h78V5.61a.62.62 0 0 0-.61-.61H7.11a.62.62 0 0 0-.61.61z" style="" fill="#333"/><path class="cls-4" d="M5.5 14h80v17h-80z" style="" fill="#fa096d"/><path class="cls-5" d="M86.5 32h-82V13h82zm-80-2h78V15h-78z" style="" fill="#9b0047"/><circle class="cls-2" cx="76" cy="9.5" r="1.5" style="" fill="#333"/><circle class="cls-2" cx="69" cy="9.5" r="1.5" style="" fill="#333"/><circle class="cls-2" cx="62" cy="9.5" r="1.5" style="" fill="#333"/></g></g></g><g transform="translate(153 0)"><g class="nc-icon-wrapper"><defs/><path class="cls-1" d="M.2 2.12l9.34 9.34a.63.63 0 0 0 .92 0l9.34-9.34a.63.63 0 0 0 .2-.46.66.66 0 0 0-.2-.46l-1-1a.66.66 0 0 0-.46-.2.63.63 0 0 0-.46.2L10 8.08 2.12.2a.63.63 0 0 0-.46-.2.66.66 0 0 0-.46.2l-1 1a.66.66 0 0 0-.2.46.63.63 0 0 0 .2.46z" id="Layer_3" data-name="Layer 3" style="" fill="#333"/></g></g><g transform="translate(173 0)"><g class="nc-icon-wrapper"><defs/><g id="Layer_10" data-name="Layer 10"><path id="_1" data-name="1" class="cls-1" d="M0 0h91v64H0z" fill="#333" opacity="0"/><path class="cls-2" d="M81.68 61H9.32a4.78 4.78 0 0 1-4.82-4.73V19h2v37.27A2.77 2.77 0 0 0 9.32 59h72.36a2.77 2.77 0 0 0 2.82-2.73V19h2v37.27A4.78 4.78 0 0 1 81.68 61z" style="" fill="#333"/><path class="cls-3" d="M85.5 14h-80V5.61A1.61 1.61 0 0 1 7.11 4h76.78a1.61 1.61 0 0 1 1.61 1.61z" fill="#333" opacity="0.15"/><path class="cls-2" d="M86.5 15h-82V5.61A2.61 2.61 0 0 1 7.11 3h76.78a2.61 2.61 0 0 1 2.61 2.61zm-80-2h78V5.61a.62.62 0 0 0-.61-.61H7.11a.62.62 0 0 0-.61.61z" style="" fill="#333"/><path class="cls-2" d="M78.5 34h-67V21h67zm-65-2h63v-9h-63z" style="" fill="#333"/><circle class="cls-2" cx="76" cy="9.5" r="1.5" style="" fill="#333"/><circle class="cls-2" cx="69" cy="9.5" r="1.5" style="" fill="#333"/><circle class="cls-2" cx="62" cy="9.5" r="1.5" style="" fill="#333"/></g></g></g><g transform="translate(264 0)"><g class="nc-icon-wrapper"><defs/><g id="Layer_11" data-name="Layer 11"><path id="_1" data-name="1" class="cls-1" d="M0 0h91v64H0z" fill="#333" opacity="0"/><path class="cls-2" d="M81.68 61H9.32a4.78 4.78 0 0 1-4.82-4.73V19h2v37.27A2.77 2.77 0 0 0 9.32 59h72.36a2.77 2.77 0 0 0 2.82-2.73V19h2v37.27A4.78 4.78 0 0 1 81.68 61z" style="" fill="#333"/><path class="cls-3" d="M85.5 14h-80V5.61A1.61 1.61 0 0 1 7.11 4h76.78a1.61 1.61 0 0 1 1.61 1.61z" fill="#333" opacity="0.15"/><path class="cls-2" d="M86.5 15h-82V5.61A2.61 2.61 0 0 1 7.11 3h76.78a2.61 2.61 0 0 1 2.61 2.61zm-80-2h78V5.61a.62.62 0 0 0-.61-.61H7.11a.62.62 0 0 0-.61.61z" style="" fill="#333"/><path class="cls-2" d="M78.5 52h-67V39h67zm-65-2h63v-9h-63z" style="" fill="#333"/><circle class="cls-2" cx="76" cy="9.5" r="1.5" style="" fill="#333"/><circle class="cls-2" cx="69" cy="9.5" r="1.5" style="" fill="#333"/><circle class="cls-2" cx="62" cy="9.5" r="1.5" style="" fill="#333"/></g></g></g><g transform="translate(355 0)"><g class="nc-icon-wrapper"><defs/><path class="cls-1" d="M14.93 4A8.12 8.12 0 0 0 12 1.07 7.91 7.91 0 0 0 8 0a7.91 7.91 0 0 0-4 1.07A8.12 8.12 0 0 0 1.07 4 7.91 7.91 0 0 0 0 8a7.91 7.91 0 0 0 1.07 4A8.12 8.12 0 0 0 4 14.93 7.91 7.91 0 0 0 8 16a7.91 7.91 0 0 0 4-1.07A8.12 8.12 0 0 0 14.93 12 7.91 7.91 0 0 0 16 8a7.91 7.91 0 0 0-1.07-4zm-5.6 9a.31.31 0 0 1-.33.33H7a.31.31 0 0 1-.33-.33v-2a.31.31 0 0 1 .33-.33h2a.31.31 0 0 1 .33.33zm2.54-6.16a2.66 2.66 0 0 1-.29.63 2.16 2.16 0 0 1-.47.5 5.07 5.07 0 0 1-.47.37l-.51.3a1.75 1.75 0 0 0-.57.51 1 1 0 0 0-.23.52.36.36 0 0 1-.09.24A.32.32 0 0 1 9 10H7a.32.32 0 0 1-.24-.09.36.36 0 0 1-.09-.24v-.38A2 2 0 0 1 7.21 8a3.78 3.78 0 0 1 1.21-.9 2.12 2.12 0 0 0 .71-.47 1 1 0 0 0 .2-.63.76.76 0 0 0-.39-.62 1.51 1.51 0 0 0-.89-.27 1.53 1.53 0 0 0-.89.25 5.44 5.44 0 0 0-.9 1 .29.29 0 0 1-.26.07.27.27 0 0 1-.2-.07l-1.37-1a.29.29 0 0 1-.09-.43 4.26 4.26 0 0 1 3.87-2.26 4 4 0 0 1 1.79.42 3.93 3.93 0 0 1 1.42 1.21A2.77 2.77 0 0 1 12 6a2.47 2.47 0 0 1-.13.84z" id="Layer_3" data-name="Layer 3" style="" fill="#fa096d"/></g></g><g transform="translate(371 0)"><g class="nc-icon-wrapper"><defs/><g id="Layer_17" data-name="Layer 17"><path class="cls-1" d="M0 0h31v31H0z" fill="#333" opacity="0"/><g class="cls-2" opacity="0.5"><path class="cls-3" d="M15.5 2.5a13 13 0 1 1-13 13 13 13 0 0 1 13-13m0-2a15 15 0 1 0 15 15 15 15 0 0 0-15-15z" style="" fill="#333"/></g></g></g></g><g transform="translate(402 0)"><g class="nc-icon-wrapper"><defs/><g id="Layer_16" data-name="Layer 16"><path class="cls-1" d="M0 0h31v31H0z" fill="#333" opacity="0"/><circle class="cls-2" cx="15.5" cy="15.5" r="14" fill="#333" opacity="0.5"/><path class="cls-3" d="M15.5 2.5a13 13 0 1 1-13 13 13 13 0 0 1 13-13m0-2a15 15 0 1 0 15 15 15 15 0 0 0-15-15z" style="" fill="#333"/></g></g></g><g transform="translate(433 0)"><g class="nc-icon-wrapper"><defs/><g id="Layer_15" data-name="Layer 15"><path class="cls-1" d="M0 0h91v64H0z" fill="#333" opacity="0"/><path class="cls-2" d="M5.5 14v43.9c0 1.16 1.71 2.1 3.82 2.1h72.36c2.11 0 3.82-.94 3.82-2.1V14z" fill="#333" opacity="0.1"/><path class="cls-3" d="M81.68 61H9.32c-2.75 0-4.82-1.33-4.82-3.1V13h82v44.9c0 1.77-2.07 3.1-4.82 3.1zM6.5 15v42.9c0 .32 1 1.1 2.82 1.1h72.36c1.83 0 2.82-.78 2.82-1.1V15z" style="" fill="#333"/><path class="cls-4" d="M12.6 22.16h64.9V33H12.6z" style="" fill="#fa096d"/><path class="cls-5" d="M78.5 34H11.6V21.16h66.9zm-64.9-2h62.9v-8.84H13.6z" style="" fill="#9b0047"/><path class="cls-3" d="M86.5 15h-82V5.61A2.61 2.61 0 0 1 7.11 3h76.78a2.61 2.61 0 0 1 2.61 2.61zm-80-2h78V5.61a.62.62 0 0 0-.61-.61H7.11a.62.62 0 0 0-.61.61z" style="" fill="#333"/><circle class="cls-3" cx="76" cy="9.5" r="1.5" style="" fill="#333"/><circle class="cls-3" cx="69" cy="9.5" r="1.5" style="" fill="#333"/><circle class="cls-3" cx="62" cy="9.5" r="1.5" style="" fill="#333"/></g></g></g><g transform="translate(524 0)"><g class="nc-icon-wrapper"><defs/><g id="Layer_15" data-name="Layer 15"><path class="cls-1" d="M0 0h91v64H0z" fill="#333" opacity="0"/><path class="cls-2" d="M5.5 14v43.9c0 1.16 1.71 2.1 3.82 2.1h72.36c2.11 0 3.82-.94 3.82-2.1V14z" fill="#333" opacity="0.1"/><path class="cls-3" d="M81.68 61H9.32c-2.75 0-4.82-1.33-4.82-3.1V13h82v44.9c0 1.77-2.07 3.1-4.82 3.1zM6.5 15v42.9c0 .32 1 1.1 2.82 1.1h72.36c1.83 0 2.82-.78 2.82-1.1V15z" style="" fill="#333"/><path class="cls-4" d="M12.6 22.16h64.9V33H12.6z" fill="#333" opacity="0.15"/><path class="cls-3" d="M78.5 34H11.6V21.16h66.9zm-64.9-2h62.9v-8.84H13.6z" style="" fill="#333"/><path class="cls-3" d="M86.5 15h-82V5.61A2.61 2.61 0 0 1 7.11 3h76.78a2.61 2.61 0 0 1 2.61 2.61zm-80-2h78V5.61a.62.62 0 0 0-.61-.61H7.11a.62.62 0 0 0-.61.61z" style="" fill="#333"/><circle class="cls-3" cx="76" cy="9.5" r="1.5" style="" fill="#333"/><circle class="cls-3" cx="69" cy="9.5" r="1.5" style="" fill="#333"/><circle class="cls-3" cx="62" cy="9.5" r="1.5" style="" fill="#333"/></g></g></g><g transform="translate(615 0)"><g class="nc-icon-wrapper"><defs/><g id="Layer_14" data-name="Layer 14"><path class="cls-1" d="M0 0h91v64H0z" fill="#333" opacity="0"/><path class="cls-2" d="M81.68 61H9.32c-2.75 0-4.82-1.33-4.82-3.1V13h2v44.9c0 .32 1 1.1 2.82 1.1h72.36c1.83 0 2.82-.78 2.82-1.1V13h2v44.9c0 1.77-2.07 3.1-4.82 3.1z" style="" fill="#333"/><path class="cls-3" d="M85.5 14h-80V5.61A1.61 1.61 0 0 1 7.11 4h76.78a1.61 1.61 0 0 1 1.61 1.61z" fill="#333" opacity="0.15"/><path class="cls-2" d="M86.5 15h-82V5.61A2.61 2.61 0 0 1 7.11 3h76.78a2.61 2.61 0 0 1 2.61 2.61zm-80-2h78V5.61a.62.62 0 0 0-.61-.61H7.11a.62.62 0 0 0-.61.61z" style="" fill="#333"/><path class="cls-3" d="M12.5 21h65v32h-65z" fill="#333" opacity="0.15"/><path class="cls-2" d="M78.5 54h-67V20h67zm-65-2h63V22h-63z" style="" fill="#333"/><path class="cls-4" d="M23.5 31h43v11h-43z" style="" fill="#fa096d"/><path class="cls-5" d="M67.5 43h-45V30h45zm-43-2h41v-9h-41z" style="" fill="#9b0047"/><circle class="cls-2" cx="76" cy="9.5" r="1.5" style="" fill="#333"/><circle class="cls-2" cx="69" cy="9.5" r="1.5" style="" fill="#333"/><circle class="cls-2" cx="62" cy="9.5" r="1.5" style="" fill="#333"/></g></g></g><g transform="translate(706 0)"><g class="nc-icon-wrapper"><defs/><g id="Layer_14" data-name="Layer 14"><path class="cls-1" d="M0 0h91v64H0z" fill="#333" opacity="0"/><path class="cls-2" d="M81.68 61H9.32c-2.75 0-4.82-1.33-4.82-3.1V13h2v44.9c0 .32 1 1.1 2.82 1.1h72.36c1.83 0 2.82-.78 2.82-1.1V13h2v44.9c0 1.77-2.07 3.1-4.82 3.1z" style="" fill="#333"/><path class="cls-3" d="M85.5 14h-80V5.61A1.61 1.61 0 0 1 7.11 4h76.78a1.61 1.61 0 0 1 1.61 1.61z" fill="#333" opacity="0.15"/><path class="cls-2" d="M86.5 15h-82V5.61A2.61 2.61 0 0 1 7.11 3h76.78a2.61 2.61 0 0 1 2.61 2.61zm-80-2h78V5.61a.62.62 0 0 0-.61-.61H7.11a.62.62 0 0 0-.61.61z" style="" fill="#333"/><path class="cls-2" d="M79 53.85H12.05v-34H79zm-64.9-2H77v-30H14.05z" style="" fill="#333"/><path class="cls-3" d="M24.05 31.01h42.9v10.84h-42.9z" fill="#333" opacity="0.15"/><path class="cls-2" d="M68 42.85H23.05V30H68zm-42.9-2H66V32H25.05z" style="" fill="#333"/><circle class="cls-2" cx="76" cy="9.5" r="1.5" style="" fill="#333"/><circle class="cls-2" cx="69" cy="9.5" r="1.5" style="" fill="#333"/><circle class="cls-2" cx="62" cy="9.5" r="1.5" style="" fill="#333"/></g></g></g><g transform="translate(797 0)"><g class="nc-icon-wrapper"><defs/><g id="Layer_10" data-name="Layer 10"><path class="cls-1" d="M0 0h91v64H0z" fill="#333" opacity="0"/><path class="cls-2" d="M81.68 61H9.32a4.78 4.78 0 0 1-4.82-4.73V19h2v37.27A2.77 2.77 0 0 0 9.32 59h72.36a2.77 2.77 0 0 0 2.82-2.73V19h2v37.27A4.78 4.78 0 0 1 81.68 61z" style="" fill="#333"/><path class="cls-3" d="M85.5 14h-80V5.61A1.61 1.61 0 0 1 7.11 4h76.78a1.61 1.61 0 0 1 1.61 1.61z" fill="#333" opacity="0.15"/><path class="cls-2" d="M86.5 15h-82V5.61A2.61 2.61 0 0 1 7.11 3h76.78a2.61 2.61 0 0 1 2.61 2.61zm-80-2h78V5.61a.62.62 0 0 0-.61-.61H7.11a.62.62 0 0 0-.61.61z" style="" fill="#333"/><path class="cls-4" d="M12.5 22h65v11h-65z" style="" fill="#fa096d"/><path class="cls-5" d="M78.5 34h-67V21h67zm-65-2h63v-9h-63z" style="" fill="#9b0047"/><circle class="cls-2" cx="69" cy="9.5" r="1.5" style="" fill="#333"/><circle class="cls-2" cx="76" cy="9.5" r="1.5" style="" fill="#333"/><circle class="cls-2" cx="62" cy="9.5" r="1.5" style="" fill="#333"/></g></g></g><g transform="translate(888 0)"><g class="nc-icon-wrapper"><defs/><g id="Layer_12" data-name="Layer 12"><path class="cls-1" d="M0 0h91v64H0z" fill="#333" opacity="0"/><path class="cls-2" d="M81.68 61H9.32c-2.75 0-4.82-1.33-4.82-3.1V37h2v20.9c0 .32 1 1.1 2.82 1.1h72.36c1.83 0 2.82-.78 2.82-1.1V37h2v20.9c0 1.77-2.07 3.1-4.82 3.1z" style="" fill="#333"/><path class="cls-3" d="M85.5 14h-80V5.61A1.61 1.61 0 0 1 7.11 4h76.78a1.61 1.61 0 0 1 1.61 1.61z" fill="#333" opacity="0.15"/><path class="cls-2" d="M86.5 15h-82V5.61A2.61 2.61 0 0 1 7.11 3h76.78a2.61 2.61 0 0 1 2.61 2.61zm-80-2h78V5.61a.62.62 0 0 0-.61-.61H7.11a.62.62 0 0 0-.61.61z" style="" fill="#333"/><path class="cls-2" d="M86.5 32h-82V13h82zm-80-2h78V15h-78z" style="" fill="#333"/><circle class="cls-2" cx="76" cy="9.5" r="1.5" style="" fill="#333"/><circle class="cls-2" cx="69" cy="9.5" r="1.5" style="" fill="#333"/><circle class="cls-2" cx="62" cy="9.5" r="1.5" style="" fill="#333"/></g></g></g><g transform="translate(979 0)"><g class="nc-icon-wrapper"><defs/><g id="Layer_13" data-name="Layer 13"><path class="cls-1" d="M0 0h91v64H0z" fill="#333" opacity="0"/><path class="cls-2" d="M81.68 61H9.32c-2.75 0-4.82-1.33-4.82-3.1V13h2v44.9c0 .32 1 1.1 2.82 1.1h72.36c1.83 0 2.82-.78 2.82-1.1V13h2v44.9c0 1.77-2.07 3.1-4.82 3.1z" style="" fill="#333"/><path class="cls-3" d="M85.5 14h-80V5.61A1.61 1.61 0 0 1 7.11 4h76.78a1.61 1.61 0 0 1 1.61 1.61z" fill="#333" opacity="0.15"/><path class="cls-2" d="M86.5 15h-82V5.61A2.61 2.61 0 0 1 7.11 3h76.78a2.61 2.61 0 0 1 2.61 2.61zm-80-2h78V5.61a.62.62 0 0 0-.61-.61H7.11a.62.62 0 0 0-.61.61z" style="" fill="#333"/><path class="cls-3" d="M30.05 20.85h30.9v32h-30.9z" fill="#333" opacity="0.15"/><path class="cls-2" d="M62 53.85H29.05v-34H62zm-30.9-2H60v-30H31.05z" style="" fill="#333"/><path class="cls-4" d="M36.05 31.85h18.9v10h-18.9z" style="" fill="#fa096d"/><path class="cls-5" d="M56 42.85H35.05v-12H56zm-18.9-2H54v-8H37.05z" style="" fill="#9b0047"/><circle class="cls-2" cx="69" cy="9.5" r="1.5" style="" fill="#333"/><circle class="cls-2" cx="75.45" cy="9.35" r="1.5" style="" fill="#333"/><circle class="cls-2" cx="62" cy="9.5" r="1.5" style="" fill="#333"/></g></g></g><g transform="translate(1070 0)"><g class="nc-icon-wrapper"><defs/><g id="Layer_13" data-name="Layer 13"><path class="cls-1" d="M0 0h91v64H0z" fill="#333" opacity="0"/><path class="cls-2" d="M81.68 61H9.32c-2.75 0-4.82-1.33-4.82-3.1V13h2v44.9c0 .32 1 1.1 2.82 1.1h72.36c1.83 0 2.82-.78 2.82-1.1V13h2v44.9c0 1.77-2.07 3.1-4.82 3.1z" style="" fill="#333"/><path class="cls-3" d="M85.5 14h-80V5.61A1.61 1.61 0 0 1 7.11 4h76.78a1.61 1.61 0 0 1 1.61 1.61z" fill="#333" opacity="0.15"/><path class="cls-2" d="M86.5 15h-82V5.61A2.61 2.61 0 0 1 7.11 3h76.78a2.61 2.61 0 0 1 2.61 2.61zm-80-2h78V5.61a.62.62 0 0 0-.61-.61H7.11a.62.62 0 0 0-.61.61z" style="" fill="#333"/><path class="cls-2" d="M62 53.85H29.05v-34H62zm-30.9-2H60v-30H31.05z" style="" fill="#333"/><path class="cls-3" d="M36.05 31.85h18.9v10h-18.9z" fill="#333" opacity="0.15"/><path class="cls-2" d="M56 42.85H35.05v-12H56zm-18.9-2H54v-8H37.05z" style="" fill="#333"/><circle class="cls-2" cx="76" cy="9.5" r="1.5" style="" fill="#333"/><circle class="cls-2" cx="69" cy="9.5" r="1.5" style="" fill="#333"/><circle class="cls-2" cx="62" cy="9.5" r="1.5" style="" fill="#333"/></g></g></g><g transform="translate(1161 0)"><g class="nc-icon-wrapper"><defs/><g id="Layer_5" data-name="Layer 5"><path id="_2" data-name="2" class="cls-1" d="M0 0h91v64H0z" fill="#333" opacity="0"/><path class="cls-1" d="M0 0h91v64H0z" fill="#333" opacity="0"/><path class="cls-2" d="M81.68 61H9.32a4.78 4.78 0 0 1-4.82-4.73V19h2v37.27A2.77 2.77 0 0 0 9.32 59h72.36a2.77 2.77 0 0 0 2.82-2.73V19h2v37.27A4.78 4.78 0 0 1 81.68 61z" style="" fill="#333"/><path class="cls-3" d="M85.5 14h-80V5.61A1.61 1.61 0 0 1 7.11 4h76.78a1.61 1.61 0 0 1 1.61 1.61z" fill="#333" opacity="0.15"/><path class="cls-2" d="M86.5 15h-82V5.61A2.61 2.61 0 0 1 7.11 3h76.78a2.61 2.61 0 0 1 2.61 2.61zm-80-2h78V5.61a.62.62 0 0 0-.61-.61H7.11a.62.62 0 0 0-.61.61z" style="" fill="#333"/><path class="cls-4" d="M12.5 40h65v11h-65z" style="" fill="#fa096d"/><path class="cls-5" d="M78.5 52h-67V39h67zm-65-2h63v-9h-63z" style="" fill="#9b0047"/><circle class="cls-2" cx="76" cy="9.5" r="1.5" style="" fill="#333"/><circle class="cls-2" cx="69" cy="9.5" r="1.5" style="" fill="#333"/><circle class="cls-2" cx="62" cy="9.5" r="1.5" style="" fill="#333"/></g></g></g></svg>