<svg xmlns="http://www.w3.org/2000/svg" xmlns:xlink="http://www.w3.org/1999/xlink" width="442.016" height="462.451" viewBox="0 0 442.016 462.451">
  <defs>
    <clipPath id="clip-path">
      <path id="Path_1319" data-name="Path 1319" d="M.424,263.775S-12.907,385.263,104.87,378.666c117.915-6.6,94.827-117.777,94.827-117.777L116.414,189.7Z" transform="translate(0.03 -189.7)"/>
    </clipPath>
  </defs>
  <g id="img2" transform="translate(0.031)">
    <ellipse id="Ellipse_38" data-name="Ellipse 38" cx="31.609" cy="4.123" rx="31.609" ry="4.123" transform="translate(369.835 444.036)" opacity="0.15"/>
    <ellipse id="Ellipse_39" data-name="Ellipse 39" cx="171.238" cy="8.246" rx="171.238" ry="8.246" transform="translate(77.384 445.96)" opacity="0.15"/>
    <ellipse id="Ellipse_40" data-name="Ellipse 40" cx="38.48" cy="5.085" rx="38.48" ry="5.085" transform="translate(20.076 440.6)" opacity="0.15"/>
    <g id="Group_704" data-name="Group 704" transform="translate(-0.03)">
      <g id="Group_644" data-name="Group 644" transform="translate(47.18)">
        <path id="Path_1308" data-name="Path 1308" d="M426.662,211.276c-2.336.687-4.4,1.374-6.734,1.924-19.24,4.123-39.717.962-55.8-10.994a66.194,66.194,0,0,1-23.226-33.258,59.563,59.563,0,0,1-31.609,6.459,104.843,104.843,0,0,1,22.538,64.455c0,56.071-45.627,103.759-99.5,103.759-54.422,0-100.049-47.688-100.049-103.759s45.627-102.8,100.049-102.8a86.346,86.346,0,0,1,18.141,1.924,66.444,66.444,0,0,1-9.345-26.112A60.431,60.431,0,0,1,218.868,117c-28.86,0-53.735-19.24-60.881-45.077a32.368,32.368,0,0,1-1.374-6.322C85.424,94.46,34.3,162.351,34.3,239.724c0,103.072,90.429,189.791,198.174,189.791,107.2,0,196.662-86.718,196.662-189.791A177.947,177.947,0,0,0,426.662,211.276Z" transform="translate(-34.3 24.554)" fill="#202023"/>
        <g id="Group_643" data-name="Group 643" transform="translate(28.86 96.338)">
          <g id="Group_642" data-name="Group 642">
            <path id="Path_1309" data-name="Path 1309" d="M412.068,211.515c-19.24,4.123-39.717.962-55.8-10.994a66.194,66.194,0,0,1-23.226-33.258,59.563,59.563,0,0,1-31.609,6.459c-13.193-.687-27.211-5.635-39.3-14.43a70.713,70.713,0,0,1-19.515-22.126,66.444,66.444,0,0,1-9.345-26.112,60.431,60.431,0,0,1-22.264,4.123c-28.86,0-53.735-19.24-60.881-45.077C94.055,99.235,55.3,156.131,55.3,220.311c0,93.04,81.908,171.65,179.346,171.65,96.751,0,177.834-78.61,177.834-171.65C412.343,217.562,412.343,214.539,412.068,211.515Z" transform="translate(-55.3 -70.1)" fill="#333"/>
          </g>
        </g>
        <path id="Path_1310" data-name="Path 1310" d="M190.9,19.515C190.9,8.933,200.245,0,211.377,0c10.994,0,20.2,8.933,20.2,19.515s-9.208,19.515-20.2,19.515C200.245,39.03,190.9,30.1,190.9,19.515Z" transform="translate(24.315)" fill="#333"/>
        <path id="Path_1311" data-name="Path 1311" d="M232.7,65.251c0-12.506,10.994-22.951,24.05-22.951,12.918,0,23.775,10.445,23.775,22.951S269.669,88.2,256.75,88.2C243.694,88.2,232.7,77.757,232.7,65.251Z" transform="translate(39.961 15.833)" fill="#333"/>
        <path id="Path_1312" data-name="Path 1312" d="M294.6,46.132c0-5.5,4.81-10.032,10.582-10.032a10.36,10.36,0,0,1,10.445,10.032,10.525,10.525,0,0,1-21.027,0Z" transform="translate(63.13 13.512)" fill="#333"/>
      </g>
      <g id="Group_703" data-name="Group 703" transform="translate(0 17.041)">
        <g id="Group_653" data-name="Group 653" transform="translate(0 243.663)">
          <g id="Group_652" data-name="Group 652">
            <g id="Group_651" data-name="Group 651" clip-path="url(#clip-path)">
              <g id="Group_646" data-name="Group 646" transform="translate(54.462 92.891)">
                <path id="Path_1313" data-name="Path 1313" d="M67.087,343.059c-1.512-6.047,1.924-12.918-1.1-18.416-2.749-4.673-8.933-5.635-13.88-7.971-7.971-3.848-13.468-12.781-12.369-21.577.412-3.436,1.649-6.6,2.611-9.895a44.357,44.357,0,0,0,.687-19.927c-.275-1.649-.687-3.3-.137-4.81a5.453,5.453,0,0,1,5.5-3.161,10.861,10.861,0,0,1,6.047,2.886,27.124,27.124,0,0,1,9.345,16.629c.412,2.749.412,5.635,1.1,8.383,2.749,11.407,16.217,17.454,19.652,28.723,1.787,6.047.275,12.506-.412,18.828s-.275,13.468,4.26,17.866c2.2,2.2-9.62,4.673-11.682,3.711C72.584,352.679,68.186,347.32,67.087,343.059Z" transform="translate(-39.598 -257.292)" fill="#ffb5d4"/>
                <g id="Group_645" data-name="Group 645" transform="translate(9.012 7.372)">
                  <path id="Path_1314" data-name="Path 1314" d="M80.712,352.871a1.248,1.248,0,0,1-.962-.412A38.05,38.05,0,0,1,70.4,328.546a37.488,37.488,0,0,1,.412-5.635,27.943,27.943,0,0,0,.275-6.734c-.412-3.711-5.085-6.322-9.345-8.658a43.8,43.8,0,0,1-4.535-2.749c-4.947-3.711-7.833-8.108-8.383-12.644a33.454,33.454,0,0,1,.687-8.246,36.354,36.354,0,0,0,.687-5.222,25.485,25.485,0,0,0-3.848-14.018,1.3,1.3,0,0,1,2.2-1.374,27.954,27.954,0,0,1,4.123,15.392,35.3,35.3,0,0,1-.825,5.5,23.389,23.389,0,0,0-.687,7.421c.55,4.81,4.26,8.521,7.284,10.857a48.633,48.633,0,0,0,4.26,2.611c4.4,2.474,10.032,5.5,10.582,10.582a32.037,32.037,0,0,1-.275,7.284,34.789,34.789,0,0,0-.412,5.222,35.891,35.891,0,0,0,8.658,22.4,1.285,1.285,0,0,1-.137,1.787C81.261,352.733,80.986,352.871,80.712,352.871Z" transform="translate(-46.156 -262.656)" fill="#ff3b8c"/>
                </g>
              </g>
              <g id="Group_648" data-name="Group 648" transform="translate(94.576 86.622)">
                <path id="Path_1315" data-name="Path 1315" d="M92.718,340.781c0-6.184-5.085-12.094-3.3-18.141,1.512-5.222,7.284-7.7,11.544-11.132,6.871-5.635,10.032-15.667,6.871-23.913a56.722,56.722,0,0,0-4.947-8.933,45.03,45.03,0,0,1-5.5-19.24c-.137-1.649-.137-3.3-.962-4.673-1.237-1.924-3.985-2.474-6.184-1.649-2.2.687-3.848,2.474-5.222,4.26a26.405,26.405,0,0,0-5.085,18.278c.275,2.886.962,5.635.962,8.383,0,11.682-11.544,20.889-12.094,32.571-.275,6.322,2.749,12.231,4.947,18.278,2.2,5.91,3.573,12.918.137,18.278-1.649,2.611,10.445,2.2,12.231.825C89.832,351.363,92.718,345.042,92.718,340.781Z" transform="translate(-68.787 -252.73)" fill="#ffb5d4"/>
                <g id="Group_647" data-name="Group 647" transform="translate(9.157 7.706)">
                  <path id="Path_1316" data-name="Path 1316" d="M77.305,353.937a.826.826,0,0,1-.55-.137,1.2,1.2,0,0,1-.55-1.649,35.809,35.809,0,0,0,3.023-23.775,43.489,43.489,0,0,0-1.649-5.085,37.685,37.685,0,0,1-2.061-7.009c-.687-4.948,3.985-9.345,7.7-12.781a27.123,27.123,0,0,0,3.436-3.573c2.336-2.886,5.085-7.421,4.535-12.369a26.06,26.06,0,0,0-2.474-7.146,34.383,34.383,0,0,1-2.061-5.222,28.65,28.65,0,0,1,.275-15.942,1.3,1.3,0,1,1,2.474.825,25.116,25.116,0,0,0-.275,14.568c.55,1.649,1.237,3.161,1.924,4.947a31.207,31.207,0,0,1,2.749,7.834c.55,4.535-1.1,9.483-5.085,14.293A31.487,31.487,0,0,1,85,305.424c-3.436,3.3-7.421,6.871-6.871,10.582a28.829,28.829,0,0,0,1.924,6.459,35.032,35.032,0,0,1,1.787,5.36,38.388,38.388,0,0,1-3.161,25.562A3.568,3.568,0,0,1,77.305,353.937Z" transform="translate(-75.451 -258.337)" fill="#ff3b8c"/>
                </g>
              </g>
              <g id="Group_650" data-name="Group 650" transform="translate(79.689 64.631)">
                <path id="Path_1317" data-name="Path 1317" d="M97.322,335.364C99.8,324.507,98.284,313.1,91,303.893c-3.3-4.123-7.7-7.559-9.62-12.506-3.436-8.8-1.924-18.69,1.374-27.349,2.886-7.7,6.459-16.766.137-23.913-6.047-6.871-17.591-2.611-17.728,6.459v.275c0,6.459.412,13.056-1.1,19.515-2.2,9.07-9.208,18.553-4.535,28.036,3.573,7.421,10.445,12.918,13.056,20.889,1.374,4.4.55,8.521.137,13.056-.687,9.208-2.886,26.524,3.985,34.083,2.886,3.161,6.734-2.2,8.8-4.535A51.67,51.67,0,0,0,97.322,335.364Z" transform="translate(-57.955 -236.728)" fill="#ffb5d4"/>
                <g id="Group_649" data-name="Group 649" transform="translate(9.381 7.932)">
                  <path id="Path_1318" data-name="Path 1318" d="M74.565,360.552h-.412a1.28,1.28,0,0,1-.825-1.649c.962-2.886,2.336-6.184,3.711-9.62,4.947-11.819,10.994-26.524,4.81-38.343a44.641,44.641,0,0,0-7.284-9.208c-4.673-4.81-9.345-9.895-9.758-17.179-.275-4.947,1.649-9.895,3.573-14.7a49.191,49.191,0,0,0,2.336-6.734c1.787-6.322,2.336-13.331,2.886-19.378a1.307,1.307,0,1,1,2.611.137A104.067,104.067,0,0,1,73.328,263.8a71.088,71.088,0,0,1-2.474,7.009c-1.787,4.535-3.573,9.208-3.3,13.743.412,6.322,4.673,10.857,9.07,15.667,2.886,3.023,5.772,6.047,7.7,9.758,6.734,12.918.412,28.173-4.673,40.4-1.374,3.436-2.749,6.6-3.573,9.345A2.114,2.114,0,0,1,74.565,360.552Z" transform="translate(-64.781 -242.5)" fill="#ff78b0"/>
                </g>
              </g>
            </g>
          </g>
        </g>
        <g id="Group_659" data-name="Group 659" transform="translate(346.209 220.19)">
          <path id="Path_1320" data-name="Path 1320" d="M315.821,268.113l-30.647-1.237L283.8,214.516l2.061-13.193,14.155-5.222,9.07,1.787a10.672,10.672,0,0,1,8.658,10.857l-3.3,37.106Z" transform="translate(-239.941 -163.831)" fill="#f3c8a0"/>
          <path id="Path_1321" data-name="Path 1321" d="M301.157,191.4v10.582s-2.2,1.374-7.421,1.374c-2.749,0-3.436-1.374-3.436-1.374v-3.848Z" transform="translate(-237.508 -165.591)" fill="#f3c8a0"/>
          <path id="Path_1322" data-name="Path 1322" d="M305.014,189.93v1.512c.275,6.184-3.711,12.918-9.758,13.88h-.412c-1.237.137-5.909.55-7.7-1.374a15.707,15.707,0,0,1-3.848-9.07c0-2.749.55-3.436.55-4.535,0-.825-.412-3.573-.412-4.81,0-5.635,3.711-11.132,10.445-11.132C303.777,174.4,305.289,183.2,305.014,189.93Z" transform="translate(-240.128 -171.954)" fill="#f3c8a0"/>
          <path id="Path_1323" data-name="Path 1323" d="M290.3,198.8" transform="translate(-237.508 -162.821)" fill="#28baad"/>
          <g id="Group_655" data-name="Group 655" transform="translate(63.26 35.171)">
            <path id="Path_1324" data-name="Path 1324" d="M321.606,240.854c-3.3,1.374-13.056-17.041-16.492-25.012-3.573-8.108-4.947-15.117-.824-16.766,3.985-1.649,7.971,4.26,11.269,12.506C318.72,219.69,324.766,239.48,321.606,240.854Z" transform="translate(-296.479 -197.992)" fill="#f3c8a0"/>
            <g id="Group_654" data-name="Group 654" transform="translate(0 37.134)">
              <path id="Path_1325" data-name="Path 1325" d="M302.854,264.768c-2.886-1.374,6.047-22.813,8.8-28.723s6.047-12.094,9.208-10.582.825,7.971-1.924,13.88C316.185,245.39,305.6,266.142,302.854,264.768Z" transform="translate(-296.281 -225.232)" fill="#f3c8a0"/>
              <path id="Path_1326" data-name="Path 1326" d="M306.827,250.1c3.436,1.237.55,7.146-.55,9.208-1.787,3.161-6.734,4.81-7.971,4.123s3.3-7.7,3.161-8.108-2.2,3.573-3.3,2.886c-1.1-.825,1.649-5.5,3.436-6.872C303.254,249.829,304.628,249.28,306.827,250.1Z" transform="translate(-297.917 -216.066)" fill="#f3c8a0"/>
            </g>
            <path id="Path_1327" data-name="Path 1327" d="M319.99,219.91s-6.6-24.463-15.53-21.439c-8.8,3.023,3.573,25.562,3.573,25.562Z" transform="translate(-296.65 -198.212)" fill="#ffb255"/>
          </g>
          <path id="Path_1328" data-name="Path 1328" d="M293.941,245.642c3.3.275,6.322,4.4,6.6,9.07a69.253,69.253,0,0,1-.687,14.43c-2.2,14.705-1.787,33.258-6.184,34.495s-8.933-9.07-8.8-24.188c.137-13.743-1.374-31.2,1.649-32.983C287.756,245.367,291.055,245.367,293.941,245.642Z" transform="translate(-239.637 -145.345)" fill="#f3c8a0"/>
          <g id="Group_656" data-name="Group 656" transform="translate(46.271 154.356)">
            <path id="Path_1329" data-name="Path 1329" d="M289.74,285.161c12.231-3.711,6.734,39.442,2.611,49.887s-5.635-1.512-6.322-19.652C285.2,297.255,284.93,286.673,289.74,285.161Z" transform="translate(-285.555 -284.936)" fill="#f3c8a0"/>
          </g>
          <path id="Path_1330" data-name="Path 1330" d="M305.441,245.642c3.3.275,6.322,4.4,6.6,9.07a69.247,69.247,0,0,1-.687,14.43c-2.2,14.705-1.787,33.258-6.184,34.495s-8.933-9.07-8.8-24.188c.137-13.743-1.374-31.2,1.649-32.983C299.394,245.367,302.555,245.367,305.441,245.642Z" transform="translate(-235.333 -145.345)" fill="#f3c8a0"/>
          <g id="Group_657" data-name="Group 657" transform="translate(62.075 154.356)">
            <path id="Path_1331" data-name="Path 1331" d="M301.24,285.161c12.231-3.711,6.734,39.442,2.611,49.887s-5.635-1.512-6.322-19.652C296.7,297.255,296.43,286.673,301.24,285.161Z" transform="translate(-297.055 -284.936)" fill="#f3c8a0"/>
          </g>
          <path id="Path_1332" data-name="Path 1332" d="M285.955,200.637c-2.061,1.924-3.848,5.5-4.123,12.506-.137,1.924-1.512,7.421,1.1,14.018,4.123,10.17,0,31.334-1.1,36.419a.881.881,0,0,0,.825,1.1l35.182.55a1.7,1.7,0,0,0,1.787-1.924c-.55-7.009-2.474-31.2-1.512-36.969,3.3-20.477,0-27.074-5.772-28.723C303.82,195.278,288.016,198.713,285.955,200.637Z" transform="translate(-240.859 -163.559)" fill="#fa096d"/>
          <path id="Path_1333" data-name="Path 1333" d="M296.3,263l1.374,60.607,10.307-.275,2.611-59.645Z" transform="translate(-235.262 -138.791)" fill="#f3c8a0"/>
          <path id="Path_1334" data-name="Path 1334" d="M284.9,263l1.374,60.607,10.307-.275,2.611-59.645Z" transform="translate(-239.529 -138.791)" fill="#f3c8a0"/>
          <path id="Path_1335" data-name="Path 1335" d="M319.543,245.837l1.237,54.835s-14.98,1.787-19.927,1.787c-8.933-.137-19.652-1.512-19.652-1.512l1.237-55.247Z" transform="translate(-240.914 -145.266)" fill="#005b85"/>
          <g id="Group_658" data-name="Group 658" transform="translate(0 35.981)">
            <path id="Path_1336" data-name="Path 1336" d="M256.748,210.369c2.061-2.336,19.927,12.231,24.875,16.492s9.758,9.208,7.421,11.819-7.834-1.512-12.644-5.772C271.453,228.509,254.686,212.7,256.748,210.369Z" transform="translate(-250.132 -194.566)" fill="#f3c8a0"/>
            <path id="Path_1337" data-name="Path 1337" d="M279.406,243.262c-3.436-.825-.137-21.164,1.924-29.685s5.222-14.842,9.345-13.743,3.848,8.108,1.512,16.629C289.713,224.709,282.842,244.086,279.406,243.262Z" transform="translate(-242.144 -198.461)" fill="#f3c8a0"/>
            <path id="Path_1338" data-name="Path 1338" d="M252.18,205.137c.825-.962,5.222,3.436,6.734,4.535a1.7,1.7,0,0,1,.412.275v-.137c-.275-.687-1.924-3.161-1.1-3.985.962-.825,4.4,2.474,5.635,4.673,0,.137.137.275.137.412.962,2.061,1.237,3.436-.137,5.36-2.061,3.023-7.009-1.237-8.658-2.749a11.239,11.239,0,0,1-2.886-4.947C251.768,207.061,251.768,205.687,252.18,205.137Z" transform="translate(-251.886 -196.481)" fill="#f3c8a0"/>
            <path id="Path_1339" data-name="Path 1339" d="M290.219,225.461s10.307-23.226,1.512-26.387S278.4,221.2,278.4,221.2Z" transform="translate(-241.962 -198.801)" fill="#ffb255"/>
          </g>
          <path id="Path_1340" data-name="Path 1340" d="M282.022,182.762c0,.275.137.687.137.962a37.813,37.813,0,0,0,1.924,4.123,23.6,23.6,0,0,1,1.1,5.222c.687,4.26,1.1,8.521,1.512,12.918.137,3.161-.412,6.459.687,9.483a37.947,37.947,0,0,0,7.7,11.956,12.536,12.536,0,0,0,10.445,3.848,14.816,14.816,0,0,0,10.994-7.146,22.32,22.32,0,0,0,3.023-13.193c-.55-6.459-3.573-12.506-7.559-17.591a30.388,30.388,0,0,1-3.848-5.5c-.962-2.336-.687-4.81-1.237-7.284a10.907,10.907,0,0,0-3.848-5.909c-3.985-2.749-9.345-2.336-13.743-.962C285.183,175.066,281.335,177.815,282.022,182.762Z" transform="translate(-240.636 -172.62)" fill="#004d72"/>
          <path id="Path_1341" data-name="Path 1341" d="M289.857,321.337a30.209,30.209,0,0,1-5.772,4.4c-3.985,2.474-4.948,1.924-5.085,2.886s16.354.137,16.354.137l-.275-7.559C295.217,321.2,289.857,321.2,289.857,321.337Z" transform="translate(-241.738 -117.007)" fill="#00496d"/>
          <path id="Path_1342" data-name="Path 1342" d="M300.309,321.375a17.716,17.716,0,0,1-3.573,4.81c-2.336,2.336-3.3,1.787-3.023,2.611.137.825,11.956.275,11.956.275l-.275-7.971C305.257,321.1,300.309,321.1,300.309,321.375Z" transform="translate(-236.248 -117.044)" fill="#00496d"/>
        </g>
        <g id="Group_670" data-name="Group 670" transform="translate(35.274 221.537)">
          <g id="Group_665" data-name="Group 665">
            <g id="Group_664" data-name="Group 664">
              <g id="Group_663" data-name="Group 663">
                <path id="Path_1343" data-name="Path 1343" d="M37.032,286.587c-10.72-4.26-7.009,35.319-3.573,46.451,3.3,10.994,5.085,3.985,6.184-14.842C40.743,299.231,41.155,288.236,37.032,286.587Z" transform="translate(-24.027 -131.429)" fill="#f3c8a0"/>
                <path id="Path_1344" data-name="Path 1344" d="M49,285.838c-11.132-2.749-2.749,36.007,1.787,46.589,4.535,10.445,4.81,3.3,3.985-15.53C54.09,297.932,53.4,286.8,49,285.838Z" transform="translate(-18.958 -131.642)" fill="#f3c8a0"/>
                <path id="Path_1345" data-name="Path 1345" d="M39.282,251.871a7.287,7.287,0,0,0-9.07,5.5A109.319,109.319,0,0,0,28.7,274.684c.137,14.43-.412,27.761,4.81,30.647s11.956-4.535,13.468-18.553c1.374-12.644,4.947-28.173,1.512-31.059C46.841,254.345,42.718,252.971,39.282,251.871Z" transform="translate(-24.49 -144.401)" fill="#f3c8a0"/>
                <path id="Path_1346" data-name="Path 1346" d="M45.327,252.2c-3.848-.275-7.146,3.161-7.421,7.284a121.909,121.909,0,0,0,1.237,17.041c2.336,13.88,3.848,26.936,8.933,28.585,5.222,1.649,10.17-7.009,9.345-20.889-.687-12.506.137-28.311-3.3-30.372C52.473,252.754,48.625,252.342,45.327,252.2Z" transform="translate(-21.052 -144.184)" fill="#f3c8a0"/>
                <path id="Path_1347" data-name="Path 1347" d="M58.6,243.2s-.412,56.346-.687,61.431.275,40.954.275,40.954l-7.833-.137S36.885,268.625,37.71,256.118C38.534,243.475,58.6,243.2,58.6,243.2Z" transform="translate(-21.131 -147.549)" fill="#004f72"/>
                <path id="Path_1348" data-name="Path 1348" d="M27.3,261.952s1.787,36.007,2.2,42.191,2.749,41.779,2.749,41.779h7.971s5.085-32.846,5.909-37.793c.962-6.734,5.772-40.679,6.184-59.782C52.45,229.106,27.3,261.952,27.3,261.952Z" transform="translate(-25.014 -147.885)" fill="#005b85"/>
                <path id="Path_1349" data-name="Path 1349" d="M37.551,204.527a5.316,5.316,0,0,0,1.649,5.36c6.6,6.047,28.86,25.974,33.67,21.439,5.635-5.36-15.255-21.714-21.851-25.837C45.385,202.054,38.926,199.855,37.551,204.527Z" transform="translate(-21.248 -163.023)" fill="#f3c8a0"/>
                <path id="Path_1350" data-name="Path 1350" d="M58.6,228.37a4.809,4.809,0,0,1,2.061-4.26c6.459-5.085,30.1-23.363,33.258-21.576,3.711,2.061-29.135,29.96-31.334,29.273C60.94,231.256,58.741,231.119,58.6,228.37Z" transform="translate(-13.303 -162.816)" fill="#f3c8a0"/>
                <path id="Path_1351" data-name="Path 1351" d="M93.417,198.343c-.687-.962-5.222,2.749-6.6,3.711a1.7,1.7,0,0,0-.412.275v-.137c.275-.687,2.061-2.749,1.374-3.573-.825-.825-4.26,1.924-5.635,3.711-.137.137-.137.275-.275.275-1.1,1.787-1.374,3.161-.412,4.947,1.649,3.023,6.6-.55,8.246-1.787a11.91,11.91,0,0,0,3.161-4.26C93.554,200.13,93.829,198.893,93.417,198.343Z" transform="translate(-4.962 -164.398)" fill="#f3c8a0"/>
                <path id="Path_1352" data-name="Path 1352" d="M47,202.9s18.553,14.155,20.34,14.293,20.614-11.682,20.614-11.682l4.947,6.322S72.287,232.722,67.752,233s-16.766-7.146-16.766-7.146Z" transform="translate(-17.641 -162.633)" fill="#ffb255"/>
                <g id="XMLID_8_" transform="translate(7.983)">
                  <g id="Group_660" data-name="Group 660">
                    <path id="Path_1353" data-name="Path 1353" d="M56.533,173.6s4.123,7.971-.275,10.994l-.137-.137s-5.635-1.237-6.871,1.649c-.962,2.061.412,3.711-.412,4.947-1.374,1.924-3.985-4.26-5.36-3.848s-2.474,2.061-.687,4.81c2.474,3.985-6.047,5.909-6.047,5.909h-.137c-1.237-1.649-11.132-15.117.275-19.1C49.249,174.562,53.234,177.036,56.533,173.6Z" transform="translate(-31.445 -173.6)" fill="#004d72"/>
                    <path id="Path_1354" data-name="Path 1354" d="M55.077,181.572h0v.137s3.848,16.492-.687,19.378a7.712,7.712,0,0,1-8.246.412l-.687,6.871L34.6,204.11l1.237-8.933-.137-.137h.137s8.658-1.924,6.047-5.909c-1.787-2.886-.687-4.4.687-4.81s3.985,5.772,5.36,3.848c.825-1.237-.55-2.886.412-4.947C49.58,180.335,55.077,181.572,55.077,181.572Z" transform="translate(-30.264 -170.715)" fill="#f3c8a0"/>
                  </g>
                </g>
                <g id="XMLID_6_" transform="translate(0 31.197)">
                  <g id="Group_661" data-name="Group 661">
                    <path id="Path_1355" data-name="Path 1355" d="M60.5,261.854l-2.749.55c-.55-5.222-1.512-14.293-3.573-29.273-3.3-23.363-18-31.884-22.676-34.083a27.054,27.054,0,0,1,4.26-2.749c2.061,1.787,5.36,3.848,11.132,4.535h0a14.718,14.718,0,0,1,1.649.825c.962,2.474,4.947,12.369,6.047,17.728C56.65,229.97,59.261,251.272,60.5,261.854Z" transform="translate(-23.442 -196.3)" fill="#fff"/>
                    <path id="Path_1356" data-name="Path 1356" d="M59.155,250.4c0,6.322-.412,11.407-2.611,15.8-.412-4.123-3.985-34.907-6.6-48.375C48.847,212.606,45,202.574,43.9,200.1a23.328,23.328,0,0,1,8.108,7.559C56.131,213.843,59.155,240.367,59.155,250.4Z" transform="translate(-18.801 -194.878)" fill="#fa096d"/>
                    <path id="Path_1357" data-name="Path 1357" d="M56.371,232.383c3.436,24.188,4.26,36.144,4.4,38.618a21.951,21.951,0,0,1-3.573,3.573c-7.833,6.459-29.96,5.36-31.2,3.985s4.26-11.407,4.123-21.164c-.137-9.62-3.023-23.638-4.4-41.5-.825-10.307,4.4-14.842,7.971-17.591C38.367,200.5,53.072,209.02,56.371,232.383Z" transform="translate(-25.637 -195.551)" fill="#fa096d"/>
                  </g>
                </g>
                <g id="Group_662" data-name="Group 662" transform="translate(2.409 39.479)">
                  <path id="Path_1358" data-name="Path 1358" d="M29.878,202.84a5.145,5.145,0,0,0-2.474,4.947c.55,8.933,3.023,38.755,9.758,38.755,7.7,0,3.985-26.249,1.924-33.67C37.3,206.55,34.138,200.5,29.878,202.84Z" transform="translate(-27.389 -202.327)" fill="#f3c8a0"/>
                  <path id="Path_1359" data-name="Path 1359" d="M34.11,230.312a5.143,5.143,0,0,1,4.673-.962c7.971,2.061,36.831,9.895,37.381,13.468.687,4.123-41.5-5.222-42.191-7.284C33.285,233.885,32.048,232.1,34.11,230.312Z" transform="translate(-25.3 -192.28)" fill="#f3c8a0"/>
                </g>
                <path id="Path_1360" data-name="Path 1360" d="M27.5,203.218a6.27,6.27,0,0,1,7.559-1.1c2.2,1.374,4.81,4.4,6.047,11.132,2.474,13.468,2.061,24.325,2.886,25.012s27.761,9.62,27.761,9.62L69.83,255.3s-32.433-1.924-36.281-7.971c-3.711-6.047-6.459-20.889-7.421-30.235C25.578,210.226,25.028,205.829,27.5,203.218Z" transform="translate(-25.628 -163.226)" fill="#ffb255"/>
                <path id="Path_1361" data-name="Path 1361" d="M52.9,248.7" transform="translate(-15.432 -145.49)" fill="none" stroke="#d64774" stroke-miterlimit="10" stroke-width="1.261"/>
                <path id="Path_1362" data-name="Path 1362" d="M53.522,318.575a24.08,24.08,0,0,0,5.222,4.947c3.573,2.749,4.535,2.2,4.673,3.3.137.962-15.117,0-15.117,0V318.3S53.522,318.3,53.522,318.575Z" transform="translate(-17.154 -119.439)" fill="#00496d"/>
                <path id="Path_1363" data-name="Path 1363" d="M32.969,318.747a11.044,11.044,0,0,1-1.237,5.772c-2.2,3.711-2.2,2.886-1.649,4.26s9.208.137,9.208.137l-.825-10.307S32.832,318.472,32.969,318.747Z" transform="translate(-24.087 -119.336)" fill="#00496d"/>
                <path id="Path_1364" data-name="Path 1364" d="M54.635,243.9l-1.1.137-2.749.55-.687.137" transform="translate(-16.48 -147.287)" fill="none"/>
              </g>
            </g>
          </g>
          <g id="Group_669" data-name="Group 669" transform="translate(27.573 60.469)">
            <g id="Group_667" data-name="Group 667">
              <g id="XMLID_4_">
                <g id="Group_666" data-name="Group 666">
                  <path id="Path_1365" data-name="Path 1365" d="M56.8,247.422l27.211-4.948L90.745,217.6l-27.211,2.474-4.81,19.378Zm17.728-13.331c-.962-.275-1.374-1.512-.962-2.886s1.374-2.2,2.336-1.924,1.374,1.512.962,2.886S75.49,234.366,74.528,234.092Z" transform="translate(-41.545 -217.6)" fill="#d0d3d4"/>
                  <path id="Path_1366" data-name="Path 1366" d="M71.38,226.214c.962.275,1.374,1.512.962,2.886s-1.374,2.2-2.336,1.924-1.374-1.512-.962-2.886S70.555,225.939,71.38,226.214Z" transform="translate(-37.022 -214.395)" fill="#bcbec0"/>
                  <path id="Path_1367" data-name="Path 1367" d="M63.016,233.5l-2.061,7.971L45.7,235.7Z" transform="translate(-45.7 -211.649)" fill="#808285"/>
                </g>
              </g>
            </g>
            <g id="Group_668" data-name="Group 668" transform="translate(0 24.05)">
              <path id="Path_1368" data-name="Path 1368" d="M60.955,240.872l27.211-4.947v1.237l-27.211,4.947s.137-1.237,0-1.237v1.237L45.7,236.337V235.1" transform="translate(-45.7 -235.1)" fill="#bcbec0"/>
            </g>
          </g>
          <path id="Path_1369" data-name="Path 1369" d="M60.375,240.877c.137,0,.412-.137.55-.137.275,0,.55-.137.825-.137a1.03,1.03,0,0,0,.687-.137c.137,0,.137-.137.275-.137s.137-.137.275-.137c.412-.137.825-.137,1.1-.412a4.882,4.882,0,0,0,.55-1.237V238.4a3.819,3.819,0,0,1,1.649-1.649,3.316,3.316,0,0,1,3.023.412c.687.55.55,1.1.275,1.787a4.274,4.274,0,0,1-1.649,2.2,5.3,5.3,0,0,1-2.474.825,5.636,5.636,0,0,1-1.512.137c-.55,0-.962-.137-1.512-.137a7.408,7.408,0,0,1-1.374-.412,3.445,3.445,0,0,1-.962-.55C60.512,241.014,60.375,241.014,60.375,240.877Z" transform="translate(-12.737 -150.036)" fill="#f3c8a0"/>
        </g>
        <g id="Group_677" data-name="Group 677" transform="translate(180.136 25.114)">
          <path id="Path_1370" data-name="Path 1370" d="M143.7,94.079s-.275,13.331,9.345,18.141c13.468,6.734,37.243-.137,34.495-18.141S143.7,94.079,143.7,94.079Z" transform="translate(-126.307 -9.936)" fill="#00496d"/>
          <g id="Group_672" data-name="Group 672">
            <g id="XMLID_1_" transform="translate(0 2.567)">
              <g id="Group_671" data-name="Group 671">
                <path id="Path_1371" data-name="Path 1371" d="M160.573,53.287h.137a17.376,17.376,0,0,0,5.085-1.787h0v3.711a6.447,6.447,0,0,1-4.947,4.535,6.249,6.249,0,0,1-4.947-4.535V51.775h0A14.908,14.908,0,0,0,160.573,53.287Z" transform="translate(-121.741 -25.446)" fill="#e6c69f"/>
                <path id="Path_1372" data-name="Path 1372" d="M162.806,60.383h-.137A14.908,14.908,0,0,1,158,58.871c-2.2-1.1-4.535-3.023-5.085-6.047,0,0-2.611-1.1-2.611-3.3s2.336-1.512,2.336-1.512-1.924-6.734,1.649-11.819c3.573-4.947,8.108-3.436,8.108-3.436h.412s4.535-1.512,8.108,3.436,1.649,11.819,1.649,11.819,2.336-.55,2.336,1.512c0,2.2-2.611,3.3-2.611,3.3-.412,2.886-2.474,4.673-4.535,5.909A18.034,18.034,0,0,1,162.806,60.383Z" transform="translate(-123.837 -32.542)" fill="#e6c69f"/>
                <path id="Path_1373" data-name="Path 1373" d="M148.3,99.087v1.924a20.063,20.063,0,0,1-5.635-3.711c-4.535-3.711-10.857-9.208-11.544-11.544-.55-1.787,1.924-7.146,5.085-13.056h0l10.307,5.772c-1.374,2.474-2.611,4.947-2.336,5.5.412,1.374,4.26,5.36,4.26,5.36h.137v9.758Z" transform="translate(-131.044 -17.511)" fill="#e6c69f"/>
                <path id="Path_1374" data-name="Path 1374" d="M175.4,99.049v-9.62h.137s3.711-3.985,4.26-5.36c.275-.55-.962-3.023-2.336-5.5L187.769,72.8h0c3.161,5.909,5.635,11.269,5.085,13.056-.687,2.336-7.009,7.7-11.544,11.407a64.683,64.683,0,0,1-5.635,3.848Z" transform="translate(-114.442 -17.473)" fill="#e6c69f"/>
                <path id="Path_1375" data-name="Path 1375" d="M168.645,90.931H149.268v-.412c.275-3.848-.275-11.819-.275-11.819s-2.2,3.436-3.985,6.734L134.7,79.662h0c3.161-6.047,7.146-12.644,9.208-16.492,4.123-7.559,19.927-9.07,19.927-9.07a6.249,6.249,0,0,0,4.947,4.535A6.249,6.249,0,0,0,173.73,54.1s15.942,1.512,19.927,8.933c2.061,3.848,6.047,10.445,9.208,16.492h0L192.558,85.3c-1.787-3.3-3.985-6.734-3.985-6.734s-.55,7.971-.275,11.819v.412H168.645Z" transform="translate(-129.676 -24.473)" fill="#fa096d"/>
              </g>
            </g>
            <path id="Path_1376" data-name="Path 1376" d="M151.337,45.827a4.626,4.626,0,0,1-.687-2.336,3.914,3.914,0,0,1,1.237-2.611,3.085,3.085,0,0,1-.137-1.374,1.491,1.491,0,0,1,1.1-1.1,4.118,4.118,0,0,1,.275-2.749,2.278,2.278,0,0,1,2.886-1.1A4.107,4.107,0,0,1,157.8,31.4a2.544,2.544,0,0,1,2.886.275s.275-.825.962-.962a1.2,1.2,0,0,1,1.237.55,1.11,1.11,0,0,1,1.237-.55,1.283,1.283,0,0,1,.962.962,2.544,2.544,0,0,1,2.886-.275,3.476,3.476,0,0,1,1.787,3.161,2.278,2.278,0,0,1,2.886,1.1,4.118,4.118,0,0,1,.275,2.749,1.491,1.491,0,0,1,1.1,1.1,1.855,1.855,0,0,1-.137,1.374,3.372,3.372,0,0,1,1.237,2.611,3.261,3.261,0,0,1-.687,2.336,1.467,1.467,0,0,1,.412,1.512c-.137.55-.55.962-1.1.825a1.9,1.9,0,0,1-.55.412.5.5,0,0,1-.412.137,1.616,1.616,0,0,1-.825-.687,2.363,2.363,0,0,1-.137-1.924,4.192,4.192,0,0,1-.962-2.886,1.162,1.162,0,0,1,.275-.825,3.342,3.342,0,0,1-1.787-2.061,3.415,3.415,0,0,1-.137-1.1.831.831,0,0,1-1.1,0,1.256,1.256,0,0,1-.412-.687,2.834,2.834,0,0,1-1.787.412,4.289,4.289,0,0,1-1.787-.825,1.567,1.567,0,0,1-1.649.962h0a1.568,1.568,0,0,1-1.649-.962,2.419,2.419,0,0,1-1.787.825,2.579,2.579,0,0,1-1.787-.412,1.256,1.256,0,0,1-.412.687.831.831,0,0,1-1.1,0,3.327,3.327,0,0,1-1.924,3.161,1.953,1.953,0,0,1,.275.825,4.192,4.192,0,0,1-.962,2.886,2.363,2.363,0,0,1-.137,1.924,1.832,1.832,0,0,1-.825.687c-.137,0-.275-.137-.412-.137a1.9,1.9,0,0,1-.55-.412,1.045,1.045,0,0,1-1.1-.825C150.787,46.789,150.925,46.239,151.337,45.827Z" transform="translate(-123.912 -30.674)" fill="#004d72"/>
          </g>
          <path id="Path_1377" data-name="Path 1377" d="M156.833,134.9l-.137,4.673-6.322,1.237L149,135.175Z" transform="translate(-124.323 8.338)" fill="#e6c69f"/>
          <g id="Group_675" data-name="Group 675" transform="translate(16.906 83.027)">
            <g id="Group_674" data-name="Group 674" transform="translate(0 0)">
              <g id="Group_673" data-name="Group 673">
                <path id="Path_1378" data-name="Path 1378" d="M151.116,151.848s-13.606-48.788-4.81-57.858c6.459-6.6,15.8-1.237,16.079,8.933S158.95,151.3,158.95,151.3Z" transform="translate(-143.346 -91.088)" fill="#005b85"/>
              </g>
            </g>
          </g>
          <g id="Group_676" data-name="Group 676" transform="translate(42.504 82.194)">
            <path id="Path_1379" data-name="Path 1379" d="M177.952,151.251s8.933-50.3-.825-58.408c-7.146-6.047-15.8.275-15.117,10.445s8.108,47.826,8.108,47.826Z" transform="translate(-161.972 -90.482)" fill="#005b85"/>
            <path id="Path_1380" data-name="Path 1380" d="M168,134.5l.412,4.535,6.6.962.687-5.36Z" transform="translate(-159.716 -74.007)" fill="#e6c69f"/>
          </g>
          <path id="Path_1381" data-name="Path 1381" d="M169.251,137.537a15.775,15.775,0,0,1-1.649,7.7c-2.886,4.81-2.886,3.848-2.2,5.635s12.094.275,12.094.275l-.962-13.743C176.534,137.537,169.113,137.263,169.251,137.537Z" transform="translate(-118.325 9.273)" fill="#00496d"/>
          <path id="Path_1382" data-name="Path 1382" d="M150.651,137.537a15.775,15.775,0,0,1-1.649,7.7c-2.886,4.81-2.886,3.848-2.2,5.635s12.094.275,12.094.275l-.962-13.743C157.8,137.537,150.376,137.263,150.651,137.537Z" transform="translate(-125.287 9.273)" fill="#00496d"/>
          <rect id="Rectangle_393" data-name="Rectangle 393" width="43.703" height="28.311" transform="translate(17.256 67.514)" fill="#d0d3d4"/>
          <path id="Path_1383" data-name="Path 1383" d="M164.221,91.111a3.711,3.711,0,1,1-3.711-3.711A3.7,3.7,0,0,1,164.221,91.111Z" transform="translate(-121.404 -9.442)" fill="#bcbec0"/>
        </g>
        <g id="Group_679" data-name="Group 679" transform="translate(21.893 166.427)">
          <path id="Path_1384" data-name="Path 1384" d="M65.237,133.5h-45.9a3.4,3.4,0,0,0-3.436,3.436V161.4a3.4,3.4,0,0,0,3.436,3.436H47.646c3.848,3.711,10.857,10.857,10.857,10.857V164.834h6.871A3.4,3.4,0,0,0,68.81,161.4V136.936A3.612,3.612,0,0,0,65.237,133.5Z" transform="translate(-15.9 -133.5)" fill="#ff87b9"/>
          <g id="Group_678" data-name="Group 678" transform="translate(10.307 12.223)">
            <path id="Path_1385" data-name="Path 1385" d="M30.271,145.838a3.436,3.436,0,1,1-3.436-3.436A3.32,3.32,0,0,1,30.271,145.838Z" transform="translate(-23.4 -142.394)" fill="#fff7fb"/>
            <path id="Path_1386" data-name="Path 1386" d="M39.471,145.838a3.436,3.436,0,1,1-3.436-3.436A3.32,3.32,0,0,1,39.471,145.838Z" transform="translate(-19.956 -142.394)" fill="#fff7fb"/>
            <circle id="Ellipse_41" data-name="Ellipse 41" cx="3.436" cy="3.436" r="3.436" transform="translate(25.425 0.008)" fill="#fff7fb"/>
          </g>
        </g>
        <g id="Group_681" data-name="Group 681" transform="translate(157.399)">
          <path id="Path_1387" data-name="Path 1387" d="M163.837,12.4h-45.9a3.4,3.4,0,0,0-3.436,3.436V40.3a3.4,3.4,0,0,0,3.436,3.436h28.173c3.848,3.711,10.857,10.857,10.857,10.857V43.734h6.871a3.4,3.4,0,0,0,3.436-3.436V15.836A3.4,3.4,0,0,0,163.837,12.4Z" transform="translate(-114.5 -12.4)" fill="#ff87b9"/>
          <g id="Group_680" data-name="Group 680" transform="translate(10.17 12.231)">
            <circle id="Ellipse_42" data-name="Ellipse 42" cx="3.436" cy="3.436" r="3.436" fill="#fff7fb"/>
            <circle id="Ellipse_43" data-name="Ellipse 43" cx="3.436" cy="3.436" r="3.436" transform="translate(12.781)" fill="#fff7fb"/>
            <path id="Path_1388" data-name="Path 1388" d="M147.271,24.736a3.436,3.436,0,1,1-3.436-3.436A3.4,3.4,0,0,1,147.271,24.736Z" transform="translate(-114.975 -21.3)" fill="#fff7fb"/>
          </g>
        </g>
        <g id="Group_702" data-name="Group 702" transform="translate(344.002 91.116)">
          <path id="Path_1389" data-name="Path 1389" d="M288,140.5v.412a2.749,2.749,0,1,1-5.5,0V140.5" transform="translate(-238.221 -55.568)" fill="#ff006a"/>
          <g id="Group_701" data-name="Group 701">
            <path id="Path_1390" data-name="Path 1390" d="M290.326,92.7A22.112,22.112,0,0,0,268.2,114.826c0,11.682,9.345,20.065,13.468,29.273a2.155,2.155,0,0,0,1.924,1.237h14.155a2.327,2.327,0,0,0,1.924-1.237c4.123-9.208,13.468-17.591,13.468-29.273A22.112,22.112,0,0,0,291.013,92.7" transform="translate(-243.574 -73.46)" fill="#ff87b9"/>
            <g id="Group_690" data-name="Group 690" transform="translate(33.147 40.129)">
              <g id="Group_685" data-name="Group 685" transform="translate(14.43)">
                <g id="Group_682" data-name="Group 682" transform="translate(1.496 4.125)">
                  <rect id="Rectangle_394" data-name="Rectangle 394" width="27.486" height="1.374" transform="translate(0 27.316) rotate(-83.604)" fill="#fff"/>
                </g>
                <g id="Group_683" data-name="Group 683" transform="translate(0 7.696)">
                  <rect id="Rectangle_395" data-name="Rectangle 395" width="9.07" height="1.374" fill="#fff"/>
                </g>
                <g id="Group_684" data-name="Group 684" transform="translate(4.535)">
                  <path id="Path_1391" data-name="Path 1391" d="M292.735,116.833v-1.374a3.161,3.161,0,1,0-3.161-3.161H288.2a4.4,4.4,0,0,1,8.8,0A4.266,4.266,0,0,1,292.735,116.833Z" transform="translate(-288.2 -107.9)" fill="#fff"/>
                </g>
              </g>
              <g id="Group_689" data-name="Group 689" transform="translate(0 0.137)">
                <g id="Group_686" data-name="Group 686" transform="translate(7.549 3.986)">
                  <rect id="Rectangle_396" data-name="Rectangle 396" width="1.374" height="27.486" transform="matrix(0.994, -0.111, 0.111, 0.994, 0, 0.153)" fill="#fff"/>
                </g>
                <g id="Group_687" data-name="Group 687" transform="translate(4.26 7.559)">
                  <rect id="Rectangle_397" data-name="Rectangle 397" width="10.307" height="1.374" fill="#fff"/>
                </g>
                <g id="Group_688" data-name="Group 688">
                  <path id="Path_1392" data-name="Path 1392" d="M278.8,116.8a4.4,4.4,0,1,1,4.4-4.4h-1.374a3.161,3.161,0,1,0-3.161,3.161V116.8Z" transform="translate(-274.4 -108)" fill="#fff"/>
                </g>
              </g>
            </g>
            <path id="Path_1393" data-name="Path 1393" d="M293.8,136.123H280.061A2.114,2.114,0,0,1,278,134.061h0A2.114,2.114,0,0,1,280.061,132H293.8a2.114,2.114,0,0,1,2.061,2.061h0A2.024,2.024,0,0,1,293.8,136.123Z" transform="translate(-239.906 -58.75)" fill="#ff87b9"/>
            <path id="Path_1394" data-name="Path 1394" d="M295.166,136H278.4a6.159,6.159,0,0,0,6.184,6.184h4.26A6.19,6.19,0,0,0,295.166,136Z" transform="translate(-239.756 -57.253)" fill="#ff87b9"/>
            <g id="Group_700" data-name="Group 700">
              <g id="Group_691" data-name="Group 691" transform="translate(63.046 0.626)">
                <path id="Path_1395" data-name="Path 1395" d="M297.316,94.609a.826.826,0,0,1-.55-.137,1.006,1.006,0,0,1-.412-1.512l7.284-13.193a1.108,1.108,0,1,1,1.924,1.1l-7.284,13.193A1.157,1.157,0,0,1,297.316,94.609Z" transform="translate(-296.156 -79.156)" fill="#ff87b9"/>
              </g>
              <g id="Group_692" data-name="Group 692" transform="translate(74.926 22.264)">
                <path id="Path_1396" data-name="Path 1396" d="M305.9,100.672a1.157,1.157,0,0,1-.962-.55,1.105,1.105,0,0,1,.412-1.512l6.459-3.573a1.108,1.108,0,0,1,1.1,1.924l-6.459,3.573C306.174,100.535,306.037,100.672,305.9,100.672Z" transform="translate(-304.8 -94.9)" fill="#ff87b9"/>
              </g>
              <g id="Group_693" data-name="Group 693" transform="translate(79.186 41.916)">
                <path id="Path_1397" data-name="Path 1397" d="M324.254,111.4H309a1.1,1.1,0,0,1,0-2.2h15.255a1.084,1.084,0,0,1,1.1,1.1A1.011,1.011,0,0,1,324.254,111.4Z" transform="translate(-307.9 -109.2)" fill="#ff87b9"/>
              </g>
              <g id="Group_694" data-name="Group 694" transform="translate(75.063 58.133)">
                <path id="Path_1398" data-name="Path 1398" d="M311.634,126.772c-.275,0-.412,0-.55-.137L305.45,123.2a1.2,1.2,0,0,1,1.237-2.061l5.635,3.436a1.273,1.273,0,0,1,.412,1.649A1.643,1.643,0,0,1,311.634,126.772Z" transform="translate(-304.9 -121)" fill="#ff87b9"/>
              </g>
              <g id="Group_695" data-name="Group 695" transform="translate(46.753 2.474)">
                <path id="Path_1399" data-name="Path 1399" d="M285.4,89.708a1.084,1.084,0,0,1-1.1-1.1V81.6a1.084,1.084,0,0,1,1.1-1.1,1.182,1.182,0,0,1,1.1,1.1v7.009A1.084,1.084,0,0,1,285.4,89.708Z" transform="translate(-284.3 -80.5)" fill="#ff87b9"/>
              </g>
              <g id="Group_696" data-name="Group 696" transform="translate(22.427)">
                <path id="Path_1400" data-name="Path 1400" d="M275.945,94.642a.92.92,0,0,1-.962-.55l-8.246-13.743a1.108,1.108,0,1,1,1.924-1.1l8.246,13.743a1.105,1.105,0,0,1-.412,1.512A.826.826,0,0,1,275.945,94.642Z" transform="translate(-266.6 -78.7)" fill="#ff87b9"/>
              </g>
              <g id="Group_697" data-name="Group 697" transform="translate(11.845 21.302)">
                <path id="Path_1401" data-name="Path 1401" d="M266.734,100.384a.826.826,0,0,1-.55-.137l-6.734-3.985a1.108,1.108,0,0,1,1.1-1.924l6.734,3.985a1.105,1.105,0,0,1,.412,1.512A1.191,1.191,0,0,1,266.734,100.384Z" transform="translate(-258.9 -94.2)" fill="#ff87b9"/>
              </g>
              <g id="Group_698" data-name="Group 698" transform="translate(0 39.279)">
                <path id="Path_1402" data-name="Path 1402" d="M265.562,111.842h-.138l-14.155-2.2a1.186,1.186,0,1,1,.412-2.336l14.155,2.2a1.133,1.133,0,0,1,.962,1.374A1.2,1.2,0,0,1,265.562,111.842Z" transform="translate(-250.281 -107.281)" fill="#ff87b9"/>
              </g>
              <g id="Group_699" data-name="Group 699" transform="translate(12.012 58.025)">
                <path id="Path_1403" data-name="Path 1403" d="M260.229,126.252a1.4,1.4,0,0,1-1.1-.687,1.155,1.155,0,0,1,.55-1.512l6.734-3.023a1.137,1.137,0,1,1,.962,2.061l-6.734,3.023A.6.6,0,0,1,260.229,126.252Z" transform="translate(-259.022 -120.922)" fill="#ff87b9"/>
              </g>
            </g>
          </g>
          <path id="Path_1404" data-name="Path 1404" d="M287.1,95.4s13.88,4.81,15.667,19.378" transform="translate(-236.499 -72.449)" fill="none" stroke="#fff" stroke-linecap="round" stroke-miterlimit="10" stroke-width="1.072"/>
        </g>
      </g>
    </g>
  </g>
</svg>
