<svg id="logo" xmlns="http://www.w3.org/2000/svg" width="289.956" height="30" viewBox="0 0 289.956 30">
  <g id="Group_364" data-name="Group 364">
    <g id="Group_363" data-name="Group 363">
      <path id="Path_899" data-name="Path 899" d="M14.348,24.1A8.665,8.665,0,0,1,6,15.357a8.665,8.665,0,0,1,8.348-8.739,8.253,8.253,0,0,1,6.261,3l4.174-3.652A14.6,14.6,0,0,0,14.348,1.4C6.652,1.4,0,7.791,0,15.357S6.652,29.313,14.348,29.313a14.1,14.1,0,0,0,10.435-4.565l-4.174-3.783A7.972,7.972,0,0,1,14.348,24.1Z" transform="translate(0 0.426)" fill="#202023"/>
      <path id="Path_900" data-name="Path 900" d="M42.874,15.257c-.13,0-.261.13-.391.13a3.875,3.875,0,0,1-3.13-.652,4.325,4.325,0,0,1-1.3-1.826,4.166,4.166,0,0,1-1.826.391,5.846,5.846,0,0,1-4.3,9.522,5.808,5.808,0,0,1,0-11.609,2.872,2.872,0,0,1,1.043.13,2.735,2.735,0,0,1-.522-1.435,3.859,3.859,0,0,1-1.3.261,3.523,3.523,0,0,1-3.391-2.478c0-.13-.13-.261-.13-.391A10.711,10.711,0,0,0,20.7,17.083c0,5.739,5.087,10.7,11.087,10.7a11,11,0,0,0,11.087-10.7A8.449,8.449,0,0,0,42.874,15.257Z" transform="translate(6.3 2.222)" fill="#202023"/>
      <g id="Group_362" data-name="Group 362" transform="translate(28.696 9.783)">
        <g id="Group_361" data-name="Group 361">
          <path id="Path_901" data-name="Path 901" d="M42.087,15.326a3.875,3.875,0,0,1-3.13-.652,4.325,4.325,0,0,1-1.3-1.826,4.166,4.166,0,0,1-1.826.391,3.542,3.542,0,0,1-2.217-.783,3.312,3.312,0,0,1-1.043-1.3,2.735,2.735,0,0,1-.522-1.435,3.859,3.859,0,0,1-1.3.261A3.523,3.523,0,0,1,27.348,7.5,9.765,9.765,0,0,0,22,15.978a10.051,10.051,0,0,0,20.087,0C42.087,15.717,42.087,15.457,42.087,15.326Z" transform="translate(-22 -7.5)" fill="#333"/>
        </g>
      </g>
      <path id="Path_902" data-name="Path 902" d="M50.987,6.5c-6,0-11.087,4.826-11.087,10.565s5.087,10.7,11.087,10.7a11,11,0,0,0,11.087-10.7A11.067,11.067,0,0,0,50.987,6.5Zm0,16.435a5.808,5.808,0,1,1,5.609-5.87A5.8,5.8,0,0,1,50.987,22.935Z" transform="translate(12.143 1.978)" fill="#202023"/>
      <path id="Path_903" data-name="Path 903" d="M79.657,8.574H73l-7.565,8.739V1.4H59.7V28.791h5.739V23.835l2.478-2.609L73,28.791h6.652L71.83,17.443Z" transform="translate(18.17 0.426)" fill="#202023"/>
      <path id="Path_904" data-name="Path 904" d="M77.061,9V29.348H82.8V9Zm2.87-9A3.174,3.174,0,0,0,76.8,3.13a3.13,3.13,0,1,0,6.261,0A3.174,3.174,0,0,0,79.93,0Z" transform="translate(23.374)" fill="#202023"/>
      <path id="Path_905" data-name="Path 905" d="M95,22.674a4.9,4.9,0,0,1-4.826-3.652h14.609c0-7.7-3.783-12.522-10.043-12.522A10.178,10.178,0,0,0,84.3,17.065a10.453,10.453,0,0,0,10.826,10.7,12.866,12.866,0,0,0,8.348-3.13l-3.652-3.783A7.16,7.16,0,0,1,95,22.674Zm0-11.087a4.146,4.146,0,0,1,4.3,3.261h-9A5.074,5.074,0,0,1,95,11.587Z" transform="translate(25.657 1.978)" fill="#202023"/>
      <path id="Path_906" data-name="Path 906" d="M116.648,24.126a8.665,8.665,0,0,1-8.348-8.739c0-4.7,3.913-8.739,8.348-8.739a8.253,8.253,0,0,1,6.261,3l4.174-3.783A14.6,14.6,0,0,0,116.648,1.3c-7.7,0-14.348,6.391-14.348,13.957s6.652,13.957,14.348,13.957a14.1,14.1,0,0,0,10.435-4.565l-4.174-3.783A7.733,7.733,0,0,1,116.648,24.126Z" transform="translate(31.135 0.396)" fill="#fa096d"/>
      <path id="Path_907" data-name="Path 907" d="M134.187,6.5c-6,0-11.087,4.826-11.087,10.565s5.087,10.7,11.087,10.7a11,11,0,0,0,11.087-10.7A10.893,10.893,0,0,0,134.187,6.5Zm0,16.435a5.8,5.8,0,0,1-5.609-5.87,5.679,5.679,0,0,1,5.609-5.739,5.808,5.808,0,0,1,0,11.609Z" transform="translate(37.465 1.978)" fill="#fa096d"/>
      <path id="Path_908" data-name="Path 908" d="M154.87,6.5a7.246,7.246,0,0,0-6.13,3V6.891H143V27.239h5.739v-12a4.026,4.026,0,0,1,4.3-3.913c2.348,0,3.913,1.7,3.913,4.3V27.37h5.609V14.457C162.435,9.761,159.174,6.5,154.87,6.5Z" transform="translate(43.522 1.978)" fill="#fa096d"/>
      <path id="Path_909" data-name="Path 909" d="M170.413,14.687c-2.739-.783-3.522-1.043-3.522-2.217,0-.652,1.043-1.174,2.348-1.174a11.368,11.368,0,0,1,5.739,1.826l2.348-4.043A15.092,15.092,0,0,0,169.37,6.6c-4.826,0-7.957,2.739-7.957,6.652,0,4.043,3.261,5.217,7.435,6.13,2.087.522,3.522.913,3.522,2.217,0,.913-1.043,1.565-2.609,1.565a11.479,11.479,0,0,1-6.783-2.348L160.5,24.73a15.033,15.033,0,0,0,9.13,3c4.957,0,8.217-2.609,8.217-6.522C177.717,16.774,173.8,15.6,170.413,14.687Z" transform="translate(48.848 2.009)" fill="#fa096d"/>
      <path id="Path_910" data-name="Path 910" d="M186.5,22.674a4.9,4.9,0,0,1-4.826-3.652h14.609c0-7.7-3.783-12.522-10.043-12.522A10.178,10.178,0,0,0,175.8,17.065a10.453,10.453,0,0,0,10.826,10.7,12.866,12.866,0,0,0,8.348-3.13l-3.652-3.783A7.159,7.159,0,0,1,186.5,22.674Zm0-11.087a4.146,4.146,0,0,1,4.3,3.261h-9A4.825,4.825,0,0,1,186.5,11.587Z" transform="translate(53.504 1.978)" fill="#fa096d"/>
      <path id="Path_911" data-name="Path 911" d="M206.27,6.5a7.246,7.246,0,0,0-6.13,3V6.891H194.4V27.239h5.739v-12a4.026,4.026,0,0,1,4.3-3.913c2.348,0,3.783,1.7,3.783,4.3V27.37h5.609V14.457C213.835,9.761,210.7,6.5,206.27,6.5Z" transform="translate(59.165 1.978)" fill="#fa096d"/>
      <path id="Path_912" data-name="Path 912" d="M224.03,23.47a2.935,2.935,0,0,1-1.957.652,2.118,2.118,0,0,1-1.957-2.348v-9h4.435V8.209h-4.435V2.6h-5.478V8.209H211.9v4.565h2.739v9.913a5.924,5.924,0,0,0,6.13,6.261,7.385,7.385,0,0,0,4.7-1.7Z" transform="translate(64.491 0.791)" fill="#fa096d"/>
    </g>
  </g>
  <g id="Group_366" data-name="Group 366" transform="translate(39.13 4.304)">
    <g id="Group_365" data-name="Group 365">
      <path id="Path_913" data-name="Path 913" d="M30,4.343A1.065,1.065,0,0,1,31.174,3.3a1.15,1.15,0,0,1,1.174,1.043,1.261,1.261,0,0,1-1.174,1.174A1.169,1.169,0,0,1,30,4.343Z" transform="translate(-30 -3.3)" fill="#333"/>
    </g>
  </g>
  <g id="Group_368" data-name="Group 368" transform="translate(42.391 7.565)">
    <g id="Group_367" data-name="Group 367">
      <path id="Path_914" data-name="Path 914" d="M32.5,7.1a1.4,1.4,0,0,1,1.3-1.3,1.232,1.232,0,0,1,1.3,1.3,1.307,1.307,0,0,1-1.3,1.3A1.4,1.4,0,0,1,32.5,7.1Z" transform="translate(-32.5 -5.8)" fill="#333"/>
    </g>
  </g>
  <g id="Group_370" data-name="Group 370" transform="translate(47.217 7.174)">
    <g id="Group_369" data-name="Group 369">
      <path id="Path_915" data-name="Path 915" d="M36.2,6.022a.6.6,0,0,1,.652-.522.561.561,0,0,1,.522.522.561.561,0,0,1-.522.522A.6.6,0,0,1,36.2,6.022Z" transform="translate(-36.2 -5.5)" fill="#333"/>
    </g>
  </g>
</svg>
